<?xml version="1.0" encoding="UTF-8"?>
<svg id="_レイヤー_2" data-name="レイヤー 2" xmlns="http://www.w3.org/2000/svg" viewBox="0 0 1222.45 68.18">
  <defs>
    <style>
      .cls-1 {
        fill: #e4f3ff;
      }

      .cls-2 {
        fill: #fff3e9;
      }
    </style>
  </defs>
  <g id="_デザイン" data-name="デザイン">
    <g>
      <g>
        <path class="cls-1" d="M68.55,3.41h13.75l-18.24,64.78h-12.92l-7.82-37.88-2.29-12.52-2.29,12.52-7.82,37.88h-12.57L0,3.41h14.37l8.57,37.09,1.85,10.33,1.89-10.11L33.97,3.41h14.28l7.69,37.09,1.98,10.33,1.98-9.93L68.55,3.41Z"/>
        <path class="cls-1" d="M144.57,39.88h-31.46v16.66h35.86v11.65h-49.09V3.41h47.5v11.47h-34.28v13.75h31.46v11.25Z"/>
        <path class="cls-1" d="M198.09,68.18h-29.36V3.41h31.46c7.94.12,13.56,2.42,16.88,6.9,1.99,2.75,2.99,6.05,2.99,9.89s-1,7.13-2.99,9.54c-1.11,1.35-2.75,2.58-4.92,3.69,3.31,1.2,5.81,3.11,7.49,5.71s2.53,5.77,2.53,9.49-.97,7.28-2.9,10.33c-1.23,2.02-2.77,3.72-4.61,5.1-2.08,1.58-4.53,2.67-7.36,3.25s-5.9.88-9.21.88ZM204.5,27.31c1.76-1.05,2.64-2.94,2.64-5.67,0-3.02-1.17-5.01-3.52-5.98-2.02-.67-4.6-1.01-7.73-1.01h-14.24v14.28h15.91c2.84,0,5.16-.54,6.94-1.63ZM197.78,39.66h-16.13v17.27h15.91c2.84,0,5.05-.38,6.64-1.14,2.87-1.41,4.31-4.1,4.31-8.09,0-3.37-1.39-5.68-4.17-6.94-1.55-.7-3.74-1.07-6.55-1.1Z"/>
      </g>
      <g>
        <path class="cls-2" d="M287.01,67.97h-29.36V3.19h31.46c7.94.12,13.56,2.42,16.88,6.9,1.99,2.75,2.99,6.05,2.99,9.89s-1,7.13-2.99,9.54c-1.11,1.35-2.75,2.58-4.92,3.69,3.31,1.2,5.81,3.11,7.49,5.71,1.68,2.61,2.53,5.77,2.53,9.49s-.97,7.28-2.9,10.33c-1.23,2.02-2.77,3.72-4.61,5.1-2.08,1.58-4.53,2.67-7.36,3.25s-5.9.88-9.21.88ZM293.43,27.1c1.76-1.05,2.64-2.94,2.64-5.67,0-3.02-1.17-5.01-3.52-5.98-2.02-.67-4.6-1.01-7.73-1.01h-14.24v14.28h15.91c2.84,0,5.16-.54,6.94-1.63ZM286.7,39.45h-16.13v17.27h15.91c2.84,0,5.05-.38,6.64-1.14,2.87-1.41,4.31-4.1,4.31-8.09,0-3.37-1.39-5.68-4.17-6.94-1.55-.7-3.74-1.07-6.55-1.1Z"/>
        <path class="cls-2" d="M369.35,54.65h-23.86l-4.48,13.32h-14.15L349.97,3.19h15.29l22.94,64.78h-14.68l-4.17-13.32ZM365.58,43.49l-8.09-25.49-8.35,25.49h16.44Z"/>
        <path class="cls-2" d="M457.81,67.97h-13.54l-26.46-46.01v46.01h-12.61V3.19h14.19l25.8,45.22V3.19h12.61v64.78Z"/>
        <path class="cls-2" d="M531.8,67.97h-13.54l-26.46-46.01v46.01h-12.61V3.19h14.19l25.8,45.22V3.19h12.61v64.78Z"/>
        <path class="cls-2" d="M598.5,39.67h-31.46v16.66h35.86v11.65h-49.09V3.19h47.5v11.47h-34.28v13.75h31.46v11.25Z"/>
        <path class="cls-2" d="M649.95,42.57h-13.97v25.4h-13.23V3.19h31.77c4.54.09,8.03.64,10.48,1.67s4.52,2.53,6.22,4.53c1.41,1.64,2.52,3.46,3.34,5.45.82,1.99,1.23,4.26,1.23,6.81,0,3.08-.78,6.1-2.33,9.07-1.55,2.97-4.12,5.08-7.69,6.31,2.99,1.2,5.1,2.91,6.35,5.12,1.25,2.21,1.87,5.59,1.87,10.13v4.35c0,2.96.12,4.97.35,6.02.35,1.67,1.17,2.9,2.46,3.69v1.63h-14.9c-.41-1.44-.7-2.59-.88-3.47-.35-1.82-.54-3.68-.57-5.58l-.09-6.02c-.06-4.13-.81-6.88-2.26-8.26s-4.17-2.07-8.15-2.07ZM658.17,30.79c2.7-1.23,4.04-3.66,4.04-7.29,0-3.93-1.3-6.56-3.91-7.91-1.47-.76-3.66-1.14-6.59-1.14h-15.73v17.4h15.34c3.05,0,5.33-.35,6.86-1.05Z"/>
      </g>
      <g>
        <path class="cls-1" d="M760.64,61.17c-4.83,4.42-11.02,6.64-18.54,6.64-9.32,0-16.64-2.99-21.97-8.96-5.33-6.01-8-14.24-8-24.7,0-11.31,3.03-20.02,9.1-26.15,5.27-5.33,11.98-8,20.13-8,10.9,0,18.87,3.57,23.91,10.72,2.78,4.01,4.28,8.04,4.48,12.08h-13.54c-.88-3.11-2.01-5.45-3.38-7.03-2.46-2.81-6.11-4.22-10.94-4.22s-8.8,1.99-11.65,5.95c-2.84,3.97-4.26,9.59-4.26,16.85s1.5,12.71,4.5,16.33c3,3.62,6.82,5.43,11.45,5.43s8.36-1.55,10.85-4.66c1.38-1.67,2.52-4.17,3.43-7.51h13.4c-1.17,7.06-4.16,12.8-8.96,17.23Z"/>
        <path class="cls-1" d="M816.45,40.61h-13.97v25.4h-13.23V1.23h31.77c4.54.09,8.03.64,10.48,1.67s4.52,2.53,6.22,4.53c1.41,1.64,2.52,3.46,3.34,5.45.82,1.99,1.23,4.26,1.23,6.81,0,3.08-.78,6.1-2.33,9.07-1.55,2.97-4.12,5.08-7.69,6.31,2.99,1.2,5.1,2.91,6.35,5.12,1.25,2.21,1.87,5.59,1.87,10.13v4.35c0,2.96.12,4.97.35,6.02.35,1.67,1.17,2.9,2.46,3.69v1.63h-14.9c-.41-1.44-.7-2.59-.88-3.47-.35-1.82-.54-3.68-.57-5.58l-.09-6.02c-.06-4.13-.81-6.88-2.26-8.26s-4.17-2.07-8.15-2.07ZM824.66,28.83c2.7-1.23,4.04-3.66,4.04-7.29,0-3.93-1.3-6.56-3.91-7.91-1.47-.76-3.66-1.14-6.59-1.14h-15.73v17.4h15.34c3.05,0,5.33-.35,6.86-1.05Z"/>
        <path class="cls-1" d="M908.02,37.71h-31.46v16.66h35.86v11.65h-49.09V1.23h47.5v11.47h-34.28v13.75h31.46v11.25Z"/>
        <path class="cls-1" d="M969.89,52.69h-23.86l-4.48,13.32h-14.15L950.51,1.23h15.29l22.94,64.78h-14.68l-4.17-13.32ZM966.11,41.53l-8.09-25.49-8.35,25.49h16.44Z"/>
        <path class="cls-1" d="M1053.02,1.23v11.47h-19.38v53.31h-13.62V12.7h-19.47V1.23h52.47Z"/>
        <path class="cls-1" d="M1068.88,1.23h13.45v64.78h-13.45V1.23Z"/>
        <path class="cls-1" d="M1099.15,1.23h14.46l14.06,49.17,14.19-49.17h14.06l-22.1,64.78h-12.79l-21.88-64.78Z"/>
        <path class="cls-1" d="M1218.05,37.71h-31.46v16.66h35.86v11.65h-49.09V1.23h47.5v11.47h-34.28v13.75h31.46v11.25Z"/>
      </g>
    </g>
  </g>
</svg>