<?xml version="1.0" encoding="UTF-8"?>
<svg id="_レイヤー_2" data-name="レイヤー 2" xmlns="http://www.w3.org/2000/svg" viewBox="0 0 22.6 25.59">
  <defs>
    <style>
      .cls-1 {
        fill: #fff;
      }

      .cls-2 {
        fill: #f06e1c;
      }
    </style>
  </defs>
  <g id="_デザイン" data-name="デザイン">
    <g>
      <g>
        <path class="cls-1" d="M17.02,6.24h5.58L16.27,0v5.49c0,.41.34.75.75.75Z"/>
        <path class="cls-1" d="M14.77,5.49V0H.75c-.41,0-.75.34-.75.75v21.98s0,2.11,0,2.11c0,.41.34.75.75.75h21.1c.41,0,.75-.34.75-.75V7.74h-5.58c-1.24,0-2.25-1.01-2.25-2.25Z"/>
      </g>
      <path class="cls-2" d="M15.43,16.36l-3.36,3.36c-.41.42-1.14.42-1.54,0l-3.36-3.36c-.43-.43-.43-1.12,0-1.54s1.12-.43,1.54,0l1.5,1.5v-7.93c.06-1.45,2.13-1.45,2.18,0v7.93l1.5-1.5c.43-.43,1.12-.43,1.54,0s.43,1.12,0,1.54h0Z"/>
    </g>
  </g>
</svg>