<?xml version="1.0" encoding="UTF-8"?>
<svg xmlns="http://www.w3.org/2000/svg" viewBox="0 0 432.7 171.37">
  <defs>
    <style>
      .cls-1 {
        isolation: isolate;
      }

      .cls-2, .cls-3 {
        mix-blend-mode: multiply;
      }

      .cls-4 {
        fill: none;
        stroke: #fdee37;
        stroke-miterlimit: 10;
        stroke-width: 2.05px;
      }

      .cls-3 {
        fill: #fdee37;
        fill-rule: evenodd;
      }
    </style>
  </defs>
  <g class="cls-1">
    <g id="_レイヤー_2" data-name="レイヤー 2">
      <g id="_デザイン" data-name="デザイン">
        <g class="cls-2">
          <path class="cls-3" d="M91.96,168.2c-.32-.2-.79-.4-1.46-.4-.41,0-.86.07-1.43.22-.45-.39-.97-.43-1.2-.43-.09,0-.18,0-.26.02-.12-.01-.24-.02-.34-.02-.48,0-.86.1-1.17.25-.12-.15-.24-.28-.37-.38.09-.35.09-.76-.06-1.25,1-.32,2.2-.74,2.95-1.62.19.1.45.2.79.2.55,0,.95-.18,1.19-.32.09.02.2.05.33.08.79.18,1.86.43,2.78.43.74,0,1.32-.16,1.77-.5.19,0,.64-.02,1.06-.3.02,0,.04,0,.07,0,.23,0,.58-.02,1.04-.11.23-.04.5-.08.8-.12.44-.06.94-.13,1.48-.24.23-.04.51-.08.81-.12.44-.06.93-.13,1.45-.23.23-.04.45-.09.67-.15.28-.07.58-.14.99-.2.06,0,.19-.03.38-.07.67-.13,2.45-.47,3.48-.47.1,0,.17,0,.23,0,.24.13.5.2.77.2.21,0,.42-.04.63-.13.38-.16.88-.29,1.41-.43.79-.21,1.61-.43,2.32-.81.24.02.49.03.75.03.85,0,1.6-.11,2.26-.2.46-.07.86-.12,1.17-.12.23,0,.31.03.34.05.24.13.51.2.77.2.29,0,.58-.08.83-.23.13-.04.45-.08.67-.11.51-.06,1.42-.18,2.1-.67.72,0,1.27-.14,1.63-.23.07-.02.13-.04.2-.05.25.14.54.23.83.23.04,0,.09,0,.13,0,.41-.04,1.23-.22,1.68-1.03.17,0,.35,0,.52,0,2.97,0,5.07-.35,6.55-1.09.41.01.8.02,1.19.02,3.37,0,5.94-.56,7.81-1.69.49.09,1.02.14,1.6.14.99,0,1.98-.14,2.9-.29.64-.1,1.16-.35,1.58-.55.34-.16.6-.28.79-.28.07,0,.15.02.24.05.17.06.35.09.53.09.01,0,.02,0,.03,0,.62-.01,1.09-.18,1.44-.39.19.06.4.09.62.09.42,0,.79-.12,1.12-.25.24.13.5.2.77.2.2,0,.4-.04.59-.11.23-.09.49-.15.76-.23.47-.12,1.01-.27,1.56-.5.36-.17.61-.41.79-.64.75-.02,1.75-.09,2.44-.77.28-.04.54-.12.76-.18.03,0,.05-.02.08-.02.28.21.62.32.97.32.17,0,.35-.03.52-.09.31-.1.6-.22.9-.33,1.04-.39,1.93-.73,3.41-.73.39,0,.8.02,1.24.07.06,0,.11,0,.17,0,.29,0,.58-.08.83-.23,0,0,0,0,.01,0,.02,0,.08,0,.13-.02.25-.06.5-.12.76-.22.17-.07.34-.13.5-.19.46-.17.94-.34,1.44-.64.11-.04.63-.1.97-.14.81-.1,1.78-.22,2.59-.65.04.01.09.03.14.05.31.11.79.27,1.47.27.11,0,.23,0,.36-.01.26-.02.5-.1.72-.23.04,0,.07,0,.11,0,.41-.01.93-.03,1.44-.27.39-.19.64-.47.81-.72.37-.05.83-.09,1.29-.12,1.5-.11,3.16-.24,4.23-1.18.37-.02.73-.03,1.07-.04,1.23-.04,2.38-.09,3.55-.3.68-.13,1.25-.4,1.75-.64.58-.28,1.04-.5,1.62-.5.18,0,.36.02.57.06.1.02.21.03.31.03.04,0,.09,0,.13,0,1.28-.11,1.93-.78,2.29-1.29,1.06.16,2.23.32,3.34.32,1.27,0,2.25-.22,2.99-.66.01,0,.03,0,.04.01.23.06.57.16,1.01.16.49,0,.98-.12,1.48-.37.99-.19,1.54-.74,1.87-1.19.18.02.35.04.52.04.95,0,1.51-.43,1.99-.8.15-.11.32-.25.56-.41l.34-.24c.2-.15.39-.28.6-.41,1.2.36,2.65.56,4.03.56,1.15,0,2.2-.14,3.1-.41.1-.03.2-.07.29-.12.6-.32,1.27-.61,1.98-.92.64-.28,1.29-.56,1.92-.88.38.11.85.2,1.43.21.12.02.25.03.37.03,1.14,0,1.76-.76,2.04-1.13.13,0,.25.02.37.04.29.03.59.06.86.06.36,0,.67-.04.95-.13.61-.19,1.01-.52,1.31-.76.11-.09.2-.16.3-.23.04,0,.08,0,.12,0,2.86,0,4.46-.85,5.86-1.63.52.13,1.15.2,1.88.2,1.12,0,2.23-.16,3.05-.45.38-.14.65-.37.84-.6.04,0,.07,0,.11,0,.29,0,.54-.04.79-.13,1.54-.57,2.71-1.03,3.48-1.64.04,0,.07,0,.11,0,.82,0,1.43-.15,1.91-.27.41-.1.71-.18,1.14-.18.16,0,.35.01.55.04.06,0,.13.01.19.01.23,0,.46-.05.67-.15.66-.31,1.11-.71,1.47-1.07.04.02.09.03.13.05.38.14.82.3,1.34.42.12.03.23.04.35.04.29,0,.57-.08.82-.22.08-.02.17-.03.26-.05.41-.08,1.29-.24,1.82-.87.04,0,.08,0,.12,0,.54-.04,1.28-.1,2.03-.35.4-.14.69-.37.88-.6.04,0,.08,0,.12,0,.43,0,.81-.11,1.11-.33.47-.25,2.65-.87,4.43-1.15.29-.05.56-.17.79-.36,1.18-1,3.34-1.59,6.42-1.76.49-.04,1.41-.25,1.83-1.23.08-.03.15-.06.22-.1.04,0,.08.02.12.02.45.09.92.18,1.46.18.65,0,1.28-.13,1.98-.41.31-.13.54-.28.68-.39.18-.05.41-.11.66-.17,1.27-.33,2.78-.71,3.61-1.63,0,0,.01,0,.02,0,.2,0,.4.02.59.04.26.02.5.04.73.04.94,0,1.67-.35,2.13-.97h1.76c.09,0,.19,0,.28-.02.95-.17,1.43-.77,1.69-1.16h.44c.37,0,1.05,0,1.65-.36.03,0,.05,0,.08,0,.41,0,.76-.09,1.06-.16.29-.07.54-.13.88-.13.15,0,.31.01.5.04.08.01.16.02.23.02.23,0,.46-.05.67-.14.79-.36,1.28-.86,1.67-1.27.02-.02.05-.05.07-.07.54-.05.88-.06,1.16-.07.59-.02.98-.04,1.81-.25,1.26-.15,1.89-.83,2.28-1.24.19-.2.25-.26.34-.3.11-.04.39-.06.64-.08.42-.02.94-.05,1.49-.23.49-.15.76-.28.96-.38.19-.09.32-.16,1.07-.27.27-.04.53-.1.83-.17.25-.06.53-.13.88-.18.46-.07.84-.23,1.13-.48.14-.03.3-.06.47-.09,1.72-.33,3.79-.73,4.56-2.05.52-.13,1.22-.37,1.67-1.06.14-.05.27-.1.39-.17.14,0,.27.01.4.01.84,0,1.46-.13,2-.25.46-.1.83-.18,1.33-.18,0,0,.26,0,.28,0,.04,0,.09,0,.13,0,1.34-.11,1.99-.85,2.34-1.37.05,0,.1,0,.15,0,.88,0,1.55-.13,2.14-.25.37-.07.69-.14,1.06-.17.51-.05,1.35-.29,1.78-1.27.12-.07.23-.15.33-.25.14-.14.35-.34.54-.61.23.02.46.03.68.03.32,0,.6-.03.86-.09.77-.17,1.18-.5,1.51-.84.06,0,.16,0,.26-.02.35-.04.84-.09,1.34-.3l.19-.08c1.06-.45,2.5-1.06,3.59-1.93.23-.13.42-.28.57-.42.29-.06.53-.16.73-.28,1.96-.04,3.53-.68,4.79-1.2.29-.12.57-.23.84-.34.45-.17.8-.43,1.09-.63.1-.07.19-.14.29-.2.11-.06.3-.19.5-.32.18-.12.37-.25.49-.32.2-.08.69-.14,1.17-.21.65-.09,1.39-.2,2.1-.45.47-.17.84-.44,1.14-.66.34-.26.51-.37.67-.37.04,0,.09,0,.15.02.11.02.23.04.34.04.5,0,.98-.23,1.28-.64.25-.34.52-.67.79-.99.13-.16.26-.31.39-.47.17,0,.33,0,.49,0,1.47,0,2.84-.14,4.19-.43.74-.16,1.27-.81,1.27-1.57v-.31c.22.03.43.05.66.05.59,0,1.15-.13,1.78-.4.03-.01.12-.04.21-.07.57-.19,1.62-.54,2.14-1.39.11-.03.21-.06.29-.08.31-.09.59-.17.75-.24.82-.36,1.3-.81,1.63-1.17.26.1.61.21,1.08.23.02,0,.03,0,.05,0,.49,0,.95-.22,1.26-.61.18-.23.3-.51.33-.79.17-.18.3-.37.4-.55.36-.07.68-.16.99-.25.5-.14.94-.26,1.49-.29.12.01.23.02.33.02.87,0,1.53-.38,1.96-1.14.91-.15,1.52-.66,1.82-1.52.07-.04.15-.09.23-.14.44-.26,1.03-.62,1.57-1.15,0,0,1.54,0,1.54,0,.85,0,1.33-.34,1.59-.63.2-.22.32-.45.39-.68.39-.05.76-.13,1.09-.33.34-.2.56-.46.7-.69.07,0,.13-.02.19-.03.33-.04.7-.09,1.09-.23.22-.08.39-.18.52-.27.05,0,.11,0,.16,0,.36,0,.69-.13.98-.37.21-.17.36-.39.45-.64,0,0,.01,0,.02,0,.27-.12.77-.35,1.17-.77.08,0,.15,0,.23,0,.71,0,2.18,0,2.92-1.04.18-.25.28-.51.31-.75.21-.12.43-.26.62-.44l.41-.38c.39-.36.77-.7,1.11-1.1.81-.2,1.36-.55,1.79-.82.48-.3.71-.45,1.31-.47.43-.01.83-.2,1.12-.51.2-.21.34-.48.4-.76.05-.03.11-.06.17-.1.87-.52,1.41-1.12,1.62-1.82.22-.14.39-.3.5-.44.85-.21,1.22-.72,1.37-1.12.07-.18.1-.36.11-.54.99-.44,1.89-.94,2.77-1.41,1.08-.59,2.1-1.15,3.26-1.6.61-.24,1.02-.83,1.02-1.49v-.24s.06-.02.08-.03c.33-.12.61-.23.93-.29.76-.17,1.3-.86,1.26-1.64-.01-.28.1-.47.54-1.03.44-.57,1.05-1.35,1.19-2.48.05-.03.09-.06.14-.09q.22-.14.37-.14c.12,0,.26.01.43.04.09.02.18.02.27.02.66,0,1.27-.41,1.51-1.06.21-.57.53-1.12.98-1.83.05-.08.13-.19.23-.33.73-1.02,1.45-2.1,1.68-3,.17-.72.11-1.41.04-2.01-.03-.32-.07-.71-.04-.88.01,0,.14-.17.23-.3.49-.65,1.4-1.85.88-3.7-.21-.72-.57-1.48-.95-2.28-.27-.57-.56-1.17-.8-1.79-.15-.38-.4-.64-.65-.83-.01-.09-.02-.19-.03-.29-.08-.82-.2-1.95-1.46-3.05-.38-.34-.8-.55-1.13-.73-.11-.79-.66-1.16-.88-1.27-.2-.1-.45-.19-.72-.29-.08-.03-.19-.06-.29-.1-.19-.44-.56-.83-1.12-1.02-.15-.29-.35-.48-.48-.59-.38-.3-.79-.54-1.15-.74-.21-.12-.42-.24-.6-.36-.07-.05-.17-.16-.27-.27-.21-.24-.5-.56-.93-.84-.53-.34-1.17-.64-1.78-.92-.44-.2-.92-.42-1.25-.62-.22-1.09-1.11-1.56-1.8-1.83-.15-.06-.34-.11-.55-.17-.13-.36-.36-.79-.86-1.11-.3-.19-.64-.29-1.05-.29-.12,0-.27.01-.43.03-.05-.04-.1-.07-.15-.11-.49-.36-1-.73-1.56-1.24-.3-.28-.69-.43-1.09-.43-.08,0-.16,0-.25.02-.16.02-.3.04-.42.04-.2,0-.22,0-.48-.17-.41-.26-1.03-.64-2.11-.66-.11-.08-.21-.14-.31-.19-.03-.1-.07-.2-.12-.3-.22-.43-.61-.73-1.08-.84-.71-.16-1.17-.22-1.59-.22-.29,0-.52.03-.82.08-.21.03-.43.07-.79.09-.18-.09-.39-.16-.63-.21-.5-.58-1.23-.86-1.62-1.02-.05-.02-.11-.04-.16-.06-.08-.3-.25-.57-.48-.77-.3-.27-.68-.41-1.07-.41-.07,0-.14,0-.21.01-.21-.22-.56-.55-1.11-.68-.2-.05-.41-.07-.65-.07-.21,0-.46.02-.7.05-.02,0-.04,0-.06,0-.29-.37-.72-.88-1.43-1.05-1.16-.29-2.21-.31-3.35-.31h-.66c-.51,0-1.08,0-1.73-.04-.27-.31-.57-.56-.84-.78-.2-.17-.4-.33-.5-.46-.31-.38-.76-.59-1.25-.59-.03,0-.29.01-.39.01-.54,0-.8-.08-1.28-.25-.11-.06-.25-.17-.37-.25-.38-.27-.66-.47-1.07-.54-.24-.05-.52-.07-.83-.07s-.66.03-1,.06c-.18.02-.36.04-.54.04-.24-.18-.55-.33-.97-.39-.23-.25-.57-.56-1.1-.69-.65-.16-1.22-.19-1.65-.19h-.76c-.37,0-.58-.02-.76-.1-.67-.28-1.3-.28-1.9-.29-.44,0-.9,0-1.49-.1-.29-.29-.77-.68-1.54-.79-.15-.02-.31-.03-.49-.03-.2,0-.41.02-.63.03-.21-.27-.52-.57-1.01-.69-.25-.06-.48-.08-.74-.08-.21,0-.43.02-.65.04-.12.01-.25.02-.36.02-.57-.1-1.69-.23-3.11-.4-.88-.1-1.82-.21-2.68-.33-.2-.03-.38-.04-.54-.04-.39,0-1.11.08-1.66.59-.08-.03-.17-.06-.26-.1-.05-.03-.13-.1-.22-.17-.24-.18-.54-.4-.91-.55-.36-.14-.76-.2-1.15-.25-.08-.01-.17-.02-.27-.04-.06-.11-.13-.22-.21-.32-.31-.36-.76-.57-1.23-.57-.05,0-.1,0-.16,0-.21.02-.45.03-.7.03-.4,0-.82-.02-1.25-.03-.47-.02-.94-.04-1.38-.04-.55,0-1.67,0-2.55.46-.07-.02-.35-.1-.42-.12-.08-.21-.21-.4-.38-.57-.3-.29-.7-.45-1.11-.45-.07,0-.14,0-.2.01-.11.01-.21.02-.3.02-.21,0-.32-.04-.57-.12-.25-.08-.56-.19-.96-.25-.32-.05-.63-.08-.93-.08-1.1,0-1.74.41-2.12.66-.09.06-.14.09-.17.11-.41-.03-.61-.1-1.01-.25-.05-.03-.15-.12-.25-.19-.29-.22-.6-.45-1-.56-.7-.19-1.45-.24-2.18-.29-.79-.05-1.62-.11-2.14-.34-.2-.09-.41-.13-.62-.14,0,0-.1,0-.11,0-.94,0-1.61.22-2.1.54-.41-.09-.84-.15-1.25-.22-.77-.12-1.64-.26-2.03-.48-.24-.13-.5-.2-.78-.2-.03,0-.05,0-.08,0-.86.04-1.88.16-2.68.65-.12-.03-.19-.06-.29-.11-.42-.19-.87-.38-1.81-.53-.17-.03-.37-.06-.6-.09-.47-.07-1.06-.15-1.61-.26-.04,0-.08-.02-.12-.02-.07-.11-.16-.21-.26-.3-.3-.26-.69-.42-1.08-.42-.09,0-.18,0-.26.02-1.3.23-2.14.72-2.7,1.26-.18-.05-.36-.1-.54-.16-.68-.2-1.38-.41-2.1-.41-.57,0-1.08.13-1.52.39-.02-.03-.04-.06-.05-.08-.3-.43-.79-.68-1.31-.68-.03,0-.06,0-.09,0-.25.01-.5.02-.74.02-.43,0-.84-.02-1.23-.03-.39-.02-.75-.03-1.1-.03s-.68.01-.99.05c-.84.1-1.42.33-1.84.5-.24.1-.38.15-.51.18-1.06-.42-2.44-.5-3.89-.59-1.23-.08-2.92-.18-3.47-.54-.27-.18-.58-.27-.89-.27-.34,0-.68.11-.97.32-.3.14-1.64.21-2.62.25-.71.03-1.46.07-2.23.14-.3.03-.62.11-.95.19-.13.03-.29.07-.44.11-.11-.15-.24-.28-.39-.38-.27-.19-.59-.28-.91-.28-.21,0-.42.04-.62.13-.48.2-.76.45-.93.61-.16,0-.32-.02-.48-.04-.33-.03-.66-.06-.93-.06-.29,0-.69.02-1.09.21-.24-.08-.56-.14-.95-.14-.02,0-.14,0-.16,0-.32.01-.59.08-.8.17-.25-.1-.51-.16-.79-.17-.45-.01-.91-.03-1.36-.03-1.15,0-2.59.08-3.93.63-.09-.03-.18-.06-.27-.1-.68-.24-1.52-.55-2.79-.55-.24,0-.49.01-.77.03-.13-.01-.24-.02-.35-.02-.39,0-1.13.08-1.69.62-.1-.02-.15-.05-.18-.06-.31-.34-.74-.54-1.2-.54-.07,0-.15,0-.22.02-.63.09-1.04.39-1.3.65,0,0,0,0,0,0-.24-.1-.61-.26-1.18-.31-.12,0-.22-.01-.32-.01-.51,0-.89.1-1.16.21-.27-.12-.56-.19-.87-.2-.28-.01-.85-.04-1.28-.04-.46,0-.98,0-1.46.38-.12.09-.22.19-.31.31l-.1-.63c-.79.13-1.22.35-1.61.57-.18.1-.2.11-.48.13h-.01c-.35,0-.71-.07-1.09-.15-.49-.1-1.04-.2-1.63-.21h0c-.8,0-1.23.14-1.61.29-.14.05-.18.07-.3.08-.32.04-.63.05-.93.05-.48,0-.94-.03-1.37-.06-.45-.03-.87-.06-1.27-.06s-.74.03-1.05.08c-.63.11-1.03.42-1.28.68-.69-.03-1.35-.11-2.03-.19-.91-.11-1.86-.22-3-.22-.47,0-.96.02-1.5.06-.2.02-.4.07-.58.16-.42.21-.76.47-1.03.73-.25-.1-.57-.19-.96-.19-.11,0-.22,0-.34.02-.32.04-.58.13-.79.25-.22-.28-.53-.49-.89-.58-.13-.03-.25-.05-.38-.05-.52,0-1.03.26-1.33.7l-.14-.67c-.69.14-1.14.52-1.41.76-.2.02-.45.04-.69.05-.75.04-1.62.09-2.41.47-1.37-.29-2.67-.43-3.96-.43-1.46,0-2.95.19-4.55.57-.34.05-.77.19-1.14.55-.13-.07-.27-.13-.42-.17-.13-.04-.32-.06-.46-.06-.46,0-.82.17-1.12.3-.02,0-.04.02-.06.03-.06-.01-.12-.03-.19-.04-.62-.15-1.56-.37-2.67-.37-.45,0-.89.04-1.32.11-.15.03-.29.07-.43.14-.37.18-.67.4-.93.63-.16-.03-.33-.04-.5-.04-.69,0-1.25.21-1.75.4-.07.03-.15.06-.22.08-.28-.22-.7-.42-1.29-.42-.42,0-.84.09-1.29.19-.23.05-.51.11-.73.14-.29-.28-.69-.43-1.1-.43-.09,0-.18,0-.27.02-.69.12-1.14.41-1.41.59-.05.04-.1.08-.17.1-.06,0-.14.02-.2.03-.87.19-1.44.6-1.7,1.23-.26.01-.5.04-.7.07-.27-.33-.65-.56-1.06-.61-.16-.02-.3-.02-.43-.02-.7,0-1.16.21-1.43.33l-.1.05s-.08-.03-.27-.1c-.27-.11-.68-.28-1.2-.28-.14,0-.28.01-.42.04-.62.11-1.02.41-1.26.68-.37-.02-.66-.07-.94-.11-.34-.06-.7-.11-1.14-.11-.56,0-1.15.09-1.91.3l-.19.04c-.64.14-1.52.34-2.13.88-.39-.04-.75-.07-1.11-.07-.91,0-1.71.21-2.52.67-.25.1-.44.16-.57.2-.09-.07-.19-.14-.3-.19-.22-.11-.46-.16-.71-.16-.23,0-.45.05-.66.14-.74.34-1.22.8-1.6,1.19-.03,0-.07-.02-.1-.03-.35-.1-.83-.23-1.58-.24h0c-.49,0-.81.19-1,.3-.02.01-.05.03-.08.05-.09-.02-.17-.04-.23-.06-.2-.05-.47-.13-.82-.13s-.67.07-.96.17c-.04,0-.08,0-.11,0-.4,0-1.16.09-1.73.66-.3-.13-.71-.28-1.24-.28-.09,0-.18,0-.27.01-.77.08-1.29.51-1.67.83-.31-.19-.76-.41-1.4-.48-.06,0-.11,0-.17,0-.1,0-.2,0-.31.03-1.16.22-1.84.78-2.34,1.19-.19.15-.33.27-.48.36-.27-.21-.63-.39-1.13-.48-.09-.02-.19-.02-.28-.02-.25,0-.5.06-.72.17-.63.31-1.22.35-1.92.4-.81.05-1.78.12-2.74.67-.2-.04-.4-.06-.6-.06-.7,0-1.38.21-1.96.6-.06,0-.65.01-.68.01-.08-.06-.16-.12-.25-.17-.24-.13-.51-.2-.78-.2-.19,0-.39.03-.57.1-1.41.54-2.55,1.25-3.4,2.13-.27-.15-.62-.26-1.1-.26-.34,0-.78.06-1.46.19-.09-.02-.19-.03-.29-.03-.07,0-.13,0-.2.01l-1.32.16c-1.42.17-1.56.19-1.75.25-.56.15-1.09.54-1.55.88-.03.02-.06.04-.08.06-.37-.04-.73-.06-1.1-.06-2.56,0-4.8.89-6.7,1.83-.11-.01-.22-.02-.33-.02-.6,0-1.1.16-1.48.3-.15-.09-.32-.15-.5-.18-.1-.02-.19-.03-.29-.03-.42,0-.82.16-1.12.46-.04.03-.16.08-.27.14-.23.13-.5.27-.74.46-.16.09-.29.18-.42.28-.49-.04-.8-.07-1.14-.07-.37,0-.74.03-1.47.1,0,0-.6.05-.6.05-1.08,0-1.81.29-2.3.68-.06,0-.11,0-.17,0-1.74,0-2.98.34-4.08.64l-.54.14c-.92.2-1.31.73-1.46,1.15-.02.05-.03.1-.05.15-.66.1-1.39.25-1.98.61-.29-.06-.57-.09-.84-.09-.75,0-1.31.21-1.77.38-.42.16-.76.29-1.36.29-.16,0-.33,0-.52-.03-.05,0-.11,0-.16,0-.12,0-.24.01-.36.04-.93.21-1.5.61-1.85,1.04-1.32.03-2.51.17-3.3.99-.02,0-.05,0-.07,0-1.53,0-2.47.42-3.23.76-.41.18-.74.33-1.15.41-.32.06-.6.22-.82.43-.13-.05-.27-.08-.4-.1-.1-.01-.19-.01-.27-.01-.64,0-1.3.29-1.66.91-.03,0-.06.02-.1.03-.31-.13-.74-.26-1.25-.26-.23,0-.46.03-.69.08-.65.16-1.26.46-1.74.7l-.26.13c-.2.1-.43.25-.78.48-.05.03-.09.06-.14.09-.06,0-.12-.01-.17-.02-.24-.03-.49-.05-.7-.05-.33,0-.62.05-.89.14l-.12.04c-.98.32-1.98.64-2.6,1.21-.31.03-.68.11-1.04.36-.3.2-.79.52-1.19.98-.23-.12-.49-.19-.75-.19s-.52.06-.76.19c-.77.41-1.17,1.02-1.43,1.43-.05.08-.12.18-.17.26-.62.1-1.04.12-1.4.12-.17,0-.88-.02-1.09-.02-.46,0-1.1.02-2.02.15-.03,0-.05,0-.08,0-.45,0-1.12.18-1.54.76-.05,0-.1,0-.15,0-.69,0-1.2.25-1.54.61-.28.04-.61.13-.93.34-.55.37-.85.85-1.06,1.2-.07.11-.13.21-.19.29-.02,0-.04.01-.06.02-.29.11-.76.29-1.14.67-.02,0-.05-.01-.07-.02-.24-.08-.57-.18-.98-.18-.37,0-.74.08-1.11.25-.56.05-1.33.29-1.79,1.2-.79.03-1.92.1-2.56.95h-1.5s-.09,0-.14,0c-.38.03-1.09.18-1.56.83-.09,0-.17,0-.26,0-1.71,0-3.16.75-3.69,1.92-.04.09-.07.17-.1.26-1.18.18-2.29.56-3.03,1.38-.03.03-.05.06-.07.09-.24-.13-.51-.2-.78-.2-.07,0-.15,0-.23.02-.59.08-1.51.41-1.82,1.59-.34.07-.64.16-.93.24-.54.15-1,.28-1.62.3-.63.02-1.19.42-1.43,1-.09.21-.12.44-.12.66-.17.04-.35.07-.49.1-.64.13-1.3.26-1.87.48-.54.21-.93.69-1.02,1.26-.16.03-.33.07-.51.12-1.55.4-1.76.6-2.02.95-.02.03-.04.06-.06.09-.11,0-.21-.01-.31-.01-1.41,0-1.94.95-2.1,1.36,0,.02-.02.05-.03.07-.28.1-.57.25-.81.52-.47.53-.69,1-.85,1.35-.96.17-1.62.51-2.18.8-.64.33-1.06.55-1.96.55-.15,0-.32,0-.5-.02-.04,0-.09,0-.13,0-.56,0-1.08.29-1.38.78-.26.43-.3.94-.13,1.4-.04.06-.08.13-.11.19-.18.29-.43.7-.52,1.19-.06,0-.13,0-.2.01-.53.02-1,.31-1.27.73-.26.04-.52.14-.74.3-.17.13-.35.25-.54.37-.72.49-1.86,1.25-2.31,2.53-.06,0-.11,0-.17,0-.36,0-1.48.1-1.93,1.27-.09.06-.18.13-.28.21-.1.09-.19.16-.27.22-.55.44-.86.78-1.21,1.62-.06.05-.12.09-.19.14-.22.16-.49.37-.73.63-.24.26-.39.52-.51.71-.03.06-.06.11-.1.17,0,0-.07.01-.15.03-.46.08-.86.34-1.1.73-.51.82-.49,1.69-.47,2.32,0,.21.01.41,0,.57-.45.18-1.14.55-1.4,1.41-.29.91-.3,1.73-.31,2.46,0,.47,0,.88-.09,1.26-.39.22-.68.59-.78,1.05-.18.81.12,1.46.32,1.85-.32.44-.44,1.04-.26,1.54.24.67.76.99,1.18,1.16.05.12.11.23.18.34.07.1.16.22.27.33.08,1.17.33,2.7,1.36,3.87.04.42.14.97.51,1.65.23.42.56.69.88.88.01.34.1.72.37,1.09.52.71,1.22,1.26,1.84,1.74.54.42,1.21.95,1.31,1.29.03.11.07.21.12.31.58,1.15,1.78,1.62,2.85,1.95.57,1.3,2.1,2.19,2.88,2.64.19.11.39.18.6.22.21.3.47.46.57.52.43.24.93.3,1.4.35.06,0,.12.01.19.02,0,.02.02.03.02.05.19.37.51.99,1.25,1.38.37.2.72.28.98.34.08.02.17.04.26.07.12.1.26.2.47.31l.15.08c.68.35,1.85.96,3.47,1.13.74,1.04,2.11,1.45,3.27,1.66.48.71,1.27,1.08,1.69,1.28.12.05.28.13.38.19.28.51.82.83,1.41.83h1.92c.76.86,1.98,1.22,2.93,1.51.49.15,1.23.37,1.43.55.3.28.69.44,1.1.44.03,0,.06,0,.09,0,.31-.02.6-.03.88-.03,1.52,0,2.66.25,3.87.51,1.17.26,2.37.52,3.93.58.17.41.44.98,1,1.43.27.22.6.34.94.36h.2c.68,0,1.16-.16,1.48-.27.08-.03.13-.05.18-.06.29.18.58.34.85.49.33.18.67.36.85.52.29.25.66.39,1.05.39,0,0,.32,0,.32,0,2.44,0,4.55.42,6.77.87.92.19,1.87.37,2.86.54.19.03.36.07.51.1.35.08.68.15,1.04.15.16.61.67,1.08,1.31,1.18.26.04.49.05.68.05,1.12,0,1.73-.52,2.02-.79.02,0,.04,0,.06,0,.67.16,1.4.23,2.12.3.57.05,1.47.14,1.86.28.14.29.37.52.65.68.24.14.51.2.78.2.15,0,.3-.02.44-.06.26-.07.52-.11.83-.11.34,0,.72.04,1.15.08.6.06,1.29.13,2.13.13.11,0,.22,0,.33,0,.56.37,1.24.4,1.77.43.13,0,.34.02.47.03.45.3.94.45,1.49.45.15,0,.31-.01.49-.03.12-.01.25-.02.41-.02.17,0,.35.02.54.05.29.32.8.75,1.71.82.57.05,1.24.07,1.9.07s1.28-.03,1.79-.07c.17-.02.38-.04.63-.07.61-.08,1.44-.18,2.25-.18.53,0,.99.04,1.37.13.27.31.75.72,1.63.83.15.02.31.03.48.03.42,0,.85-.06,1.26-.11.23-.03.48-.06.68-.08.3.33.73.53,1.19.53.07,0,.14,0,.21-.01,1-.13,1.52-.79,1.77-1.19.09,0,.2,0,.35,0h.74c.6,0,1.24-.03,1.83-.23.1,0,.13.01.14.01.04.03.09.08.14.13.36.32.95.85,2.08.94.23.02.46.03.67.03,1.12,0,1.85-.3,2.39-.52.26-.11.46-.19.68-.23.14,0,.27-.01.4-.01.14,0,.24,0,.32.01.17.26.42.47.71.6.2.09.42.13.63.13.29,0,.58-.08.83-.23.32-.19.77-.29,1.31-.29.87,0,1.92.27,2.81.71.23.11.47.17.72.17.18,0,.36-.03.53-.09.34-.12.87-.2,1.37-.29.77-.12,1.55-.25,2.23-.55.31.27.78.54,1.48.56.02,0,.04,0,.06,0,.11,0,.23-.01.34-.04.62-.14,1.01-.45,1.24-.71.33-.02.8-.05,1.27-.05.35,0,.56.01.69.03.12.08.29.21.38.28.26.2.54.41.98.47.04,0,.07,0,.11.01.03,0,.13,0,.16,0,.44,0,.81-.12,1.1-.21.31-.1.58-.18,1.06-.18.14,0,.29,0,.46.02h.14c.34.05.88.1,1.1.18,0,.01.02.02.03.03.37.39.87.6,1.43.6.63,0,1.2-.27,1.81-.56.49-.23,1.09-.52,1.48-.52.09,0,.12.02.14.03.45.28.89.42,1.35.42.37,0,.66-.09.87-.15.19-.06.31-.1.58-.1.11,0,.24,0,.38.02.29.26.66.41,1.07.41.02,0,.05,0,.07,0,.66-.03,1.28-.21,1.89-.38.54-.15,1.05-.3,1.59-.34.07,0,.15,0,.23,0,.19,0,.39.01.58.02.26.01.51.03.77.03.27,0,.53-.02.79-.05.49-.07.94-.23,1.38-.37.57-.19,1.11-.37,1.69-.37.06,0,.11,0,.17,0,.28.25.66.4,1.06.4.01,0,.03,0,.04,0,.63-.02,1.31-.23,1.96-.44.4-.12.81-.25,1.07-.29.07,0,.15-.01.23-.01.15,0,.3,0,.44.01.19,0,.37.02.54.02.47,0,.85-.07,1.15-.19.08.03.16.06.24.09.39.14.82.3,1.35.42.11.02.23.04.34.04.06,0,.13,0,.19-.01,1.15-.14,1.73-.18,2.89-.25l1.57-.1c.16-.01.33-.04.5-.08.17.06.34.09.52.09.05,0,.11,0,.16,0,.87-.09,1.67-.26,2.45-.42,1.05-.22,2.03-.42,3.12-.42.47,0,.92.04,1.39.11.09.01.17.02.26.02.28,0,.56-.07.8-.21.08-.02.18-.03.28-.05.5-.09,1.28-.23,1.81-.84.58-.01,1.13-.02,1.66-.03,3.19-.05,5.73-.09,8.74-1,0,0,2.59,0,2.59,0,.13,0,.25-.01.37-.04,1.49-.35,2.58-.96,3.55-1.49.17-.09.33-.18.5-.27.17,0,.35.01.53.03.26.02.53.04.78.04.29,0,.54-.02.78-.06.68-.12,1.17-.31,1.57-.47.28-.11.51-.2.79-.26.39-.09.98-.13,1.55-.17.57-.04,1.16-.08,1.74-.17.51-.08,1-.18,1.51-.27,1.33-.26,2.58-.5,4.11-.5.65,0,1.31.04,1.98.14-.07.31-.15.64-.17,1.02-.31.06-.61.21-.83.41-.34.31-.48.67-.53,1.01-.54.12-1.16.25-1.69.42-.29.09-.56.18-.81.27-.7.24-1.17.4-1.72.4-.44,0-.95-.1-1.58-.31-.14-.05-.29-.08-.45-.08h-.24c-1.39,0-2.19.51-2.7.99-.23-.1-.54-.2-.92-.2-.67,0-1.22.3-1.58.53-.24.15-.41.33-.54.52-.07,0-.15-.02-.22-.02-.29-.03-.59-.05-.86-.05-.24,0-.46.02-.67.06-.53.1-.95.42-1.32.7-.02.02-.05.03-.07.05-.47.07-.95.07-1.45.08-.77.01-1.57.03-2.4.26-.55.15-.9.45-1.12.68-.13,0-.25,0-.36,0-.57,0-1.03-.08-1.39-.25-.2-.09-.42-.14-.65-.15h0c-2.05,0-2.96.92-3.5,1.62-.25-.09-.58-.18-1-.2-.02,0-.09,0-.11,0-.19,0-.37.01-.55.01h-.06c-.21-.17-.46-.3-.74-.35-.16-.03-.3-.04-.43-.04-.37,0-.9.13-1.3.5-.4-.16-.87-.32-1.4-.32-.57,0-1.1.18-1.54.52-.24.19-.33.24-.36.26-.1.03-.53.05-.95.07-.32.01-.72.03-1.21.06-.31.02-.61.1-.93.18-.09.02-.23.06-.35.09-.26-.17-.56-.27-.89-.27-.05,0-.1,0-.16,0-1.01.1-1.66.46-2.13.72-.41.23-.62.34-1.13.34h0c-.31-.32-.81-.68-1.63-.71-.02,0-.04,0-.06,0-.2,0-.4.04-.59.11-.44.18-.73.41-.92.56-.04.03-.07.06-.12.09,0,0,0,0,0,0,0,0-.09.02-.28.02-.17,0-.37-.01-.6-.04-.31-.17-.75-.38-1.4-.38-.02,0-.09,0-.11,0-.85.03-1.67.25-2.39.45-.63.17-1.23.33-1.7.33-.27,0-.47-.05-.65-.17-.26-.17-.57-.26-.87-.26-.23,0-.47.05-.69.15-.1.05-.38.11-.58.16-.44.11-1.09.26-1.63.63-.33-.11-.78-.25-1.43-.25-.09,0-.19,0-.3,0-.88.06-1.43.27-1.87.45-.21.08-.38.15-.59.2-.56-.23-1.12-.3-1.31-.3-.13,0-.25,0-.37.03,0,0-.11.02-.11.02-.2.03-.63.11-1.09.11-.68,0-.95-.15-1.01-.2-.18-.13-.39-.22-.6-.27-.25-.05-.49-.08-.73-.08-1,0-1.61.49-1.94.81-.04,0-.09,0-.13,0-.15,0-.29-.01-.42-.01-.18,0-.61,0-1.05.2-.45-.08-.8-.12-1.18-.12-.43,0-.82.05-1.36.15-.05-.13-.13-.25-.21-.36-.3-.39-.77-.61-1.26-.62-.91,0-1.55.25-2.07.46-.35.14-.6.23-.91.26-.04,0-.09,0-.13,0-.27,0-.59-.07-.95-.15-.46-.1-.98-.21-1.58-.22h0c-.84,0-1.55.15-2.18.28-.45.09-.88.18-1.17.18-.04,0-.06,0-.08,0-.3-.29-.7-.46-1.12-.46-.05,0-.1,0-.15,0-1.1.1-1.69.62-2.04.93-.06.05-.11.1-.17.14-.11,0-.17.01-.22.01-.08,0-.11,0-.11,0-.06-.03-.11-.07-.16-.11-.37-.26-.99-.69-2.1-.69-.24,0-.49.02-.76.06-.1,0-.2-.01-.29-.01-.38,0-1.09.08-1.65.58-.67-.1-1.77-.27-2.03-.48-.3-.28-.69-.43-1.09-.43-.05,0-.1,0-.15,0-.35.03-.98.16-1.44.69-.25-.12-.56-.21-.96-.21-.42,0-.87.11-1.46.34-.4.16-.66.26-1.51.26-.19,0-.41,0-.65-.02-.2,0-.28-.05-.57-.19-.35-.17-.83-.4-1.54-.51-.19-.03-.37-.04-.52-.04-.52,0-.92.14-1.2.3-.28-.07-.63-.17-.9-.25-.43-.13-.87-.25-1.22-.34-.15-.04-.31-.05-.5-.05-.13,0-.31.01-.5.03-.02,0-.05,0-.08,0-.5-.2-1.1-.26-1.8-.33-.67-.07-1.43-.14-2.17-.35-.07-.02-.15-.04-.22-.05-.2-.03-.39-.04-.55-.04-.39,0-1.11.08-1.67.6-.09,0-.17-.02-.26-.02-.29-.02-.61-.05-1.23-.14-.29-.26-.67-.41-1.07-.41-.1,0-.2,0-.3.03-.07.01-.23.06-.45.13-.09.03-.17.06-.25.08-.1-.13-.23-.25-.38-.34-.27-.17-.57-.26-.88-.26-.28,0-.55.07-.8.21-.08.02-.18.03-.28.05-.43.08-1.08.19-1.59.62-.05-.02-.1-.04-.15-.06-.03-.02-.12-.1-.22-.17-.28-.21-.6-.44-.99-.57-.24-.08-.49-.11-.77-.11-.16,0-.33.01-.5.03-.07,0-.15.02-.21.02,0,0-.23-.1-.43-.18-.63-.26-1.58-.66-3-.66-.41,0-.85.03-1.3.1-.5-.07-.89-.22-1.38-.4-.75-.28-1.67-.63-3.05-.65-.08,0-.16,0-.23,0-.18,0-.35.02-.5.05-.29-.26-.67-.4-1.06-.4-.19,0-.38.03-.56.1-.45.17-.73.19-.97.19-.2,0-.4-.02-.6-.03-.31-.03-.64-.05-1.01-.05-.08,0-.16,0-.24,0-.72-.59-1.84-.59-2.58-.59-.36,0-.75.01-1.12.02-.22,0-.44.01-.64.02-.33-.26-.74-.42-1.19-.43-.12-.17-.27-.31-.45-.42-.26-.16-.55-.24-.84-.24-.16,0-.33.02-.48.07-.16.05-.34.11-.53.18-.27-.34-.67-.56-1.13-.6-.14-.01-.29-.02-.44-.02-.2,0-.41,0-.62.02-.25-.37-.64-.63-1.09-.7-.22-.04-.42-.05-.58-.05-.52,0-.92.13-1.23.31-.3-.39-.76-.63-1.28-.63-.02,0-.04,0-.06,0-.19,0-.37.01-.54.01-.02,0-.07,0-.07,0-.1-.09-.22-.16-.35-.22-.22-.1-.45-.15-.68-.15s-.49.06-.71.17c-.31.15-.58.33-.8.52-.73-.37-1.53-.75-2.59-1.14-.22-.24-.55-.46-1.04-.56-.01-.02-.02-.03-.03-.05-.15-.22-.33-.48-.61-.71-.29-.24-.65-.36-1.02-.36-.09,0-.19,0-.28.02-.19.03-.37.05-.56.05-.47,0-.92-.11-1.39-.22-.31-.07-.61-.15-.91-.19-.12-.02-.26-.03-.4-.03-.06,0-.12,0-.19,0-.22-.29-.54-.58-1.05-.68-.33-.06-.64-.08-.99-.08-.39,0-.8.03-1.19.07-.27.02-.53.05-.77.05-.13-.1-.28-.19-.46-.26-.27-.53-.82-.87-1.43-.87h-2.01c-.48-.71-1.3-.95-1.92-1.13-.19-.05-.39-.11-.58-.19-.08-.04-.17-.12-.26-.18-.22-.16-.5-.37-.84-.51-.4-.17-.83-.22-1.2-.27-.05,0-.11-.01-.17-.02-.19-.29-.48-.61-.94-.79-.6-.23-1.24-.25-1.86-.27-.35-.01-.82-.03-1.01-.09-.01-.02-.13-.11-.26-.19-.25-.17-.5-.34-.7-.44-.11-.05-.22-.12-.36-.19-.72-.4-1.81-1-3.12-1.27-.55-.84-1.56-1.21-2.09-1.41-.14-.05-.34-.13-.48-.19-.11-.29-.3-.54-.55-.73-.28-.2-.61-.31-.95-.31-.1,0-.19,0-.29.03-.14.03-.26.04-.36.04-.09,0-.1,0-.3-.09-.22-.1-.52-.23-.94-.3-.08-.24-.22-.47-.41-.65-.3-.29-.7-.46-1.12-.46-.04,0-.27.01-.34.01-.44,0-.51-.06-.87-.36-.43-.36-1.05-.87-2.15-1.04-.79-1.97-2.05-2.71-3.1-2.96-.14-.33-.38-.62-.72-.8-.87-.48-1.52-1.11-2.27-1.84-.27-.26-.53-.52-.81-.78l-.5-.45c-.56-.51-1.14-1.04-1.62-1.56.1-.15.19-.32.27-.52.24-.64.04-1.37-.49-1.81-.09-.07-.21-.26-.33-.46-.28-.46-.7-1.14-1.53-1.6-.2-1.08-.45-2.17-.93-3.11.05-.74-.2-1.19-.48-1.48-.03-.29-.1-.63-.29-1.01-.21-.44-.49-.76-.72-1.02-.31-.36-.35-.41-.31-.65l.02-.03c.3-.35,1.11-1.27.49-2.82-.06-.14-.12-.25-.19-.35,0-.03.01-.07.02-.11.05-.32.02-.75-.29-1.19.02-.22.03-.52-.03-.85.64-.2,1.14-.78,1.17-1.46.08-1.67.39-2.56,1.06-3.07.41-.3.64-.78.64-1.29v-1.06c.48-.31.79-.7,1.02-1,.16-.2.26-.32.38-.42.06-.01.12-.03.18-.05.54-.13,1.01-.25,1.39-.68.24-.26.37-.53.43-.8.41-.07.8-.2,1.14-.49.55-.47.74-1.03.82-1.42.44-.27.69-.68.8-1.09.08-.1.26-.31.65-.69.03-.02.06-.03.09-.05.19-.1.41-.22.62-.45.41-.49.52-1,.59-1.33,0,0,0,0,0-.01.05-.02.09-.03.14-.05.56-.22,1.36-.52,1.78-1.23.34-.13.61-.28.84-.41.43-.23.62-.34,1.12-.34.55,0,1.05-.28,1.35-.74.16-.26.25-.55.25-.84.4-.27.69-.56.89-.89.39-.19.65-.43.85-.61.05-.05.1-.1.16-.14,0,0,0,0,0,0,.01,0,.05,0,.13,0,.06,0,.29.02.34.02.6,0,1.16-.34,1.43-.88.23-.46.84-.9,1.48-1.37.69-.5,1.46-1.06,2.04-1.83,3.23-.71,5.11-2.33,6.58-4.09,1-.03,1.67-.31,2.17-.51.29-.12.49-.2.75-.25.03,0,.07-.01.1-.02,1.03-.25,1.48-.96,1.7-1.3,0,0,.01-.02.02-.03.24-.12.61-.23.95-.34.71-.22,1.6-.49,2.26-1.09.09,0,.17,0,.26,0,1.6,0,2.61-.42,3.41-.82.73-.12,1.5-.51,1.84-1.59.46-.05.92-.12,1.35-.36.25-.15.48-.35.94-.75.31-.27.97-.84,1.19-.97.12-.05.58-.09.92-.12.8-.07,1.8-.15,2.66-.69.28-.18.48-.38.6-.52.02,0,.05,0,.08,0,.14,0,.31.01.52.04.07,0,.15.01.22.01s.14,0,.21-.01c.99-.13,1.51-.7,1.77-1.08,0,0,0,0,0,0,.09.02.18.02.27.02.48,0,.93-.21,1.24-.59.15-.18.25-.39.31-.6.39-.21.66-.46.85-.71.04,0,.08,0,.12,0,1.1-.08,2.43-.17,3.43-1.31.11,0,.37,0,.4,0,.05.04.1.08.15.11.26.17.57.26.88.26.12,0,.23-.01.35-.04,1.18-.26,2.03-.9,2.54-1.9,2.25-.34,4.56-.74,6.63-1.33.79-.24,1.39-.69,1.78-1.3,1.74-.03,3.03-.63,4.16-1.15.33-.15.67-.31,1.02-.45.12-.05.24-.08.36-.11.25-.07.5-.14.77-.25.33-.13.62-.25.9-.38.25-.11.5-.22.8-.34.17-.07.33-.08.69-.11.34-.03.76-.06,1.29-.16,1.09-.22,1.95-.58,2.78-.94.44-.19.89-.38,1.39-.55.35-.12.78-.21,1.23-.31.92-.2,1.93-.42,2.75-.98.17,0,.34.01.51.01,1.2,0,2-.25,2.71-.47.51-.16.91-.28,1.46-.32,1.37-.12,2.02-.85,2.37-1.37.11,0,.22,0,.32,0,2.68,0,4.07-1,5.03-1.95.07,0,.15,0,.23,0,.65,0,1.26-.21,1.8-.4.36-.13.77-.27.99-.27.3.28.67.42,1.05.42.17,0,.34-.03.51-.08l.7-.22c1.31-.4,2.66-.82,3.79-1.47.31,0,.62.01.93.01,1.59,0,2.77-.15,3.7-.48.2-.07.38-.17.54-.3.65-.05,1.8-.18,2.45-.48.17-.08.34-.19.54-.33.29-.2.5-.34,1.06-.34.24,0,.52.03.82.09.1.02.19.03.29.03.01,0,.03,0,.04,0,.99-.03,1.61-.41,2.01-.85.37-.02.65-.14.82-.22.01,0,.02,0,.02-.01.44-.03.86-.23,1.15-.55.14,0,.32-.01.47-.01.56,0,1.25-.02,2.04-.17.5-.1.9-.39,1.32-.7.01,0,.02-.02.03-.03.04,0,.08,0,.12,0,.24,0,.49.02.74.03.31.02.62.04.93.04.19,0,.37,0,.55-.02.02,0,.05,0,.07,0,.55,0,1.13-.22,1.51-.68.42-.02.78-.14,1.08-.37.05-.03.27-.17.49-.3.25.12.67.3,1.21.3.14,0,.29-.01.45-.04.59-.11,1.15-.3,1.68-.48.61-.21,1.18-.4,1.6-.4.17,0,.26.03.32.06.2.09.42.13.64.13.15,0,.31-.02.46-.07,1.01-.3,2.13-.67,3.13-1.2.57.16,1.2.23,1.89.23.28,0,.58-.01.91-.04,1.12-.12,2.07-.49,2.9-.82.3-.12.59-.23.88-.33.25-.08.51-.15.78-.22.67-.18,1.41-.38,2.07-.77.11,0,.22,0,.32,0,.44,0,.85.01,1.24.03.38.01.74.02,1.08.02s.64-.01.94-.04c.85-.08,1.42-.33,1.84-.52.24-.11.41-.18.61-.22.02,0,.11,0,.12,0,.14,0,.29.01.44.02.21.01.42.02.61.02.12,0,.23,0,.33-.01.83-.06,1.43-.27,1.96-.46.55-.19.98-.34,1.74-.34.31,0,.67.03,1.06.08.07.01.15.02.22.02.29,0,.58-.08.83-.23.48-.29.96-.59,1.42-.89.49-.04.91-.05,1.26-.05h.86c.95,0,1.95-.07,2.87-.77.23.05.47.09.7.13.32.05.81.14.98.22.22.11.46.16.71.16.1,0,.2,0,.3-.03.32-.06.66-.11,1-.16,1.1-.17,2.23-.34,3.13-.84.35.02.71.03,1.05.03,1.41,0,2.51-.19,3.48-.35.74-.13,1.39-.24,2.04-.24.39,0,.77.04,1.16.12.08.02.16.03.25.03.12,0,.24,0,.35,0,1.1,0,1.93-.31,2.47-.92.02-.03.05-.05.07-.08.22.06.51.14.88.14.44,0,.88-.1,1.44-.33.24-.09.39-.12.86-.18l.49-.07c.35-.05.62-.17.84-.25.07-.03.14-.05.19-.07.27.22.62.35,1,.35h0c.44,0,.8-.14,1.12-.27.28-.11.52-.21.82-.21.34.31.81.48,1.35.48.06,0,.13,0,.21,0,.55-.04,2.08-.31,2.46-.38,1.34-.25,2.43-.58,3.46-1.04.1,0,.64.02.81.02.56,0,1-.08,1.36-.2,0,0,0,0,0,0,.09.02.18.03.27.07.31.13.7.2,1.76.2,1.64,0,4.48-.19,5.95-.47,1.47-.28,2.37-.62,2.94-.94.19.04.37.09.55.13.67.16,1.36.33,2.32.33.64,0,1.34-.08,2.15-.23,1.09-.21,1.65-.4,2.28-.67.15.02.27.05.47.12.41.13.96.3,1.78.3.34,0,.7-.03,1.09-.09.19-.03.45-.11.71-.24.26.11.65.26,1.19.26.08,0,.17,0,.27-.01.87-.07,1.7-.28,2.5-.48.32-.08.64-.16.95-.23.3,0,.6-.02.89-.02,1.14,0,1.45.12,1.5.15.25.15.53.23.82.23.14,0,.28-.02.42-.06.26-.07.53-.14.8-.2.87-.21,1.77-.43,2.55-.8.09,0,.12.02.12.02.26.2.73.55,1.49.55.42,0,.87-.11,1.46-.34.13-.05.28-.11.4-.16.03.03.06.07.09.1.3.32.71.51,1.15.52h0c.69,0,1.29-.19,1.88-.37.32-.1.65-.2.98-.27.32.18.68.28,1.07.28.07,0,.21,0,.28-.02.07,0,.18-.03.32-.07.21.06.4.08.55.09.11,0,.24,0,.37,0s.25,0,.36-.01l.42-.03c2.12-.14,4.74-.3,7.05-1.03.7.04,1.44.17,2.15.29.91.16,1.85.32,2.78.32.74,0,1.41-.11,2.02-.32.29.21.68.38,1.2.41.24.04.47.05.68.05,1.28,0,1.91-.68,2.21-1.11.31-.01.58-.07.81-.14.3.14.65.26,1.13.26.3,0,.6-.05,1.09-.12l.16-.02c.22,0,.66.1,1.03.18.38.39.87.61,1.39.61.33,0,.64-.09.92-.25.26.07.39.15.69.32.2.12.43.19.66.21.18.02.34.02.5.02,1.35,0,2.05-.62,2.42-.95.04-.04.08-.08.13-.11,1.55.19,2.79.59,3.99.97.16.05.33.08.49.08.09,0,.18,0,.27-.02.54-.09,1.17-.14,1.85-.19,1.34-.1,2.63-.2,3.65-.64.91.32,1.83.37,2.51.37.52,0,1.06-.03,1.59-.06.45-.03.9-.06,1.33-.06.73,0,1.19.09,1.43.27.24.19.53.3.84.33.45.04.87.06,1.27.06.84,0,1.55-.07,2.17-.14.45-.05.83-.09,1.16-.09.46,0,.66.08.85.22.28.2.61.31.95.31.09,0,.17,0,.26-.02.23-.04.44-.12.63-.25.1,0,.21-.01.32-.02.28-.02.76-.05,1.24-.2.34.07.67.09.96.09.18,0,.38,0,.59-.01.19,0,.39-.02.6-.02.31,0,.58.02.83.06.57.09.89.13,1.27.13.22,0,.45-.02.81-.04.26-.02.61-.04,1.1-.07.31-.02.66-.04.98-.04.13,0,.25,0,.34.01.5.09.87.15,1.28.15.2,0,.4-.01.68-.04.22-.02.49-.04.89-.06.59.59,1.47.89,2.62.89.23,0,.47,0,.71-.02.19,0,.38-.02.56-.02.14,0,.24,0,.31.01.23.25.53.43.87.5.11.02.22.03.33.03.32,0,.63-.09.89-.27.04-.01.35-.1,1.43-.1.12,0,.25,0,.37,0,.13.2.26.35.34.45l.05.06c.25.54.78.9,1.39.93h.21c.68,0,1.16-.16,1.47-.27.23-.08.29-.1.43-.1,0,0,.27,0,.28,0h.15c.14,0,.79.02.96.02.52,0,.94-.06,1.28-.17.46.12.88.14,1.21.14.21,0,.43,0,.65-.02.18,0,.37-.02.56-.02.02,0,.04,0,.06,0,.44.33.93.4,1.25.41.02,0,.11,0,.12,0,.16,0,.37-.01.59-.02.07,0,.14,0,.21-.01.22.29.55.6,1.07.71.48.1,1,.12,1.62.12h.64c.61,0,.96.02,1.15.06.22.48.67.83,1.21.91.2.03.37.04.53.04.71,0,1.18-.24,1.43-.37,0,0,0,0,0,0,.2.01.27.03.27.04.37.27.81.52,1.73.66.23.03.47.05.72.05.31,0,.64-.02.97-.05.24-.02.49-.04.72-.04.01,0,.03,0,.04,0,.29.29.76.64,1.51.75.15.02.32.03.49.03.2,0,.41-.02.62-.03.21.28.53.57,1.03.69.23.05.48.08.76.08.21,0,.42-.02.64-.03.13-.01.26-.02.39-.02.2.02.35.05.5.09.4.09.9.19,1.5.21.06.06.13.11.2.16.27.18.58.28.9.28.21,0,.41-.04.61-.12.09-.04.18-.05.29-.05.33,0,.81.13,1.37.28.24.06.48.13.74.2.12.03.29.08.49.14.62.18,1.54.45,2.47.6.08.01.21.03.37.03.01,0,.03,0,.04,0,.28.22.59.32.82.34.06,0,.11,0,.17,0,.14,0,.29-.02.43-.06.2-.05.4-.09.57-.11.61.86,1.9.91,2.54.93.03,0,.06,0,.09,0,.08.21.21.4.38.56.31.29.71.45,1.12.45.24,0,.48-.05.7-.17.01,0,.04-.02.12-.02.28,0,.74.15,1.23.31.59.2,1.29.43,2.08.53.17.55.64.99,1.24,1.1.22.04.46.06.7.06.27,0,.55-.02.83-.05.12-.01.25-.02.37-.03.28.37.69.89,1.41,1.07.13.03.32.05.45.05.32,0,.6-.08.83-.18.25.1.51.16.76.17.05.01.13.05.21.08.39.14.98.36,1.85.36.03,0,.06,0,.09,0,.07.07.25.23.27.24.04.42.24.81.56,1.08.29.25.66.38,1.04.38.14,0,.29-.02.43-.06.01,0,.02,0,.03,0,.07,0,.1.03.14.05.16.09.37.22.66.31.28.08.59.14.93.2.24.04.5.08.77.16,0,.01.07.08.14.14.26.21.59.48,1.07.59.19.05.41.07.65.07.21,0,.46-.02.7-.05.03,0,.06,0,.09,0,.22.28.54.67,1.07.93.31.15.64.25.92.34.14.04.33.1.46.16.08.75.67,1.37,1.44,1.44.96.09,2.72.27,3.15.61.19.7.83,1.18,1.55,1.18.09,0,.19,0,.29-.03.17-.03.31-.05.43-.05.08,0,.11,0,.11,0,.06.03.11.07.16.11.3.21.77.53,1.53.65.17.41.44.99,1.01,1.45.29.23.64.36,1.01.36.04,0,.07,0,.11,0,.22-.01.43-.02.63-.02.62,0,.94.08,1.08.13.15.74.81,1.33,1.58,1.33,0,0,1.5,0,1.5,0,0,0,0,.02.01.02.14.35.33.82.73,1.25.43.47.97.75,1.4.97.18.09.38.2.47.27.08.06.12.12.27.35.15.24.37.58.71.93.77.79,1.58,1.8,2.05,2.57.1.16.22.3.36.41.41.33.9.57,1.38.74.25.48.61.81.83,1.01.01.01.02.02.03.03,0,.02,0,.04,0,.05-.05.6.14,1.36,1.15,1.89.1.39.31.66.51.84,0,.02,0,.05,0,.08.01.19.02.4.04.66.01.13.03.24.07.35-.08.27-.1.57-.05.86.08.44.3.87.67,1.6.15.29.37.71.47.96,0,.03-.01.06-.01.09-.06.35-.15.93.09,1.56.02.06.05.13.09.2-.37.23-.64.6-.73,1.04-.11.53.06,1.08.44,1.46-.03.23-.19.67-.29.93l-.09.24c-.1.28-.14.55-.14.79-.27.25-.46.59-.51.97-.08.56.14,1.09.55,1.44,0,.08-.01.15-.02.22-.03.3-.08.87.04,1.46-.26.13-.46.3-.59.46-.22.25-.35.51-.42.77-.16.04-.32.1-.49.2-.36.22-.75.6-.85,1.28-.16.16-.29.36-.38.59-.1.26-.28.87-.06,1.51-.13.04-.25.1-.38.17-.52.3-.87.71-1.02,1.17-.64.26-1.4.72-1.73,1.6-.03.08-.06.16-.08.24-.45.06-.85.32-1.11.7-.24.36-.32.79-.24,1.21-.29.23-.78.64-1.04,1.27-.14.01-.31.02-.51.02,0,0-.26,0-.28,0-.48,0-.94.22-1.25.59-.2.25-.33.55-.35.87-.01,0-.02,0-.03,0-.15,0-.31,0-.49-.03-.05,0-.1,0-.15,0-.59,0-1.15.33-1.42.86-.16.31-.22.66-.16.99-.56.31-1.38.79-1.64,1.7-.31.22-1.06.55-1.62.55-.08,0-.12,0-.12,0-.24-.13-.49-.2-.74-.2-.28,0-.56.08-.81.23-.49.29-.75.83-.75,1.41v.39s-.18.13-.21.15c-.68.04-1.52.33-1.94,1.42,0,0-.2,0-.22,0-.41,0-.81.16-1.11.45-.32.3-.5.72-.49,1.16v.82c-.15.02-.31.05-.46.07-1.03.15-2.09.31-3.21.89-.26.13-.45.32-.6.5-.05,0-.11,0-.15,0-.19,0-.77,0-1.27.43-.3.26-.5.58-.58.95-.19.07-.26.08-.39.08,0,0-.2,0-.24,0-.41,0-.81.16-1.12.45-.19.19-.34.42-.42.67-.52.13-.94.52-1.12,1.02-.66.06-1.25.2-1.8.42-.61.15-1.38.56-1.61,1.71-1.01.36-1.78.89-2.32,1.61-.97.27-1.66.69-2.23,1.05-.42.26-.79.49-1.23.63-.59.19-1.02.71-1.1,1.32-.72.11-1.25.36-1.64.54-.12.05-.27.13-.35.15-.01-.01-.06-.03-.13-.08-.26-.16-.54-.23-.83-.23-.48,0-.95.21-1.26.61-.07.08-.16.14-.25.21-.28.23-.81.66-1.12,1.34-.73.17-1.19.55-1.49.9-.31-.1-.74-.22-1.32-.22-.11,0-.22,0-.35.01-.53.07-1.67.22-2.22,1.16-.15.26-.23.52-.26.76-.56.22-.89.61-1.09.93-.09-.02-.18-.05-.28-.08-.24-.08-.57-.18-.98-.18-.52,0-1.01.16-1.56.49-.26.16-.46.29-.65.42-.29.19-.56.37-1.01.63-.25.15-.52.33-.78.51-.25.17-.5.35-.7.45-.13.02-.3.03-.47.04-.71.04-1.62.1-2.27.65-.17-.04-.37-.07-.6-.07-.02,0-.03,0-.05,0-.15,0-.3.02-.45.06-.96.28-1.39.92-1.62,1.26-.02.02-.03.04-.04.07-.09.03-.27.09-.39.13-.37.12-.8.26-1.19.51-.42.27-.69.59-.9.83-.06.08-.12.16-.2.22-.24.14-.75.31-1.23.48-1.09.37-2.39.82-3.26,1.73-.17,0-.33,0-.49,0-2.39,0-3.96.65-4.53,1.89-.27-.06-.57-.1-.92-.1-.29,0-.6.03-.93.09-1.5.28-2.62.85-3.38,1.71-.45.07-1.05.3-1.42.98-.02,0-.04,0-.05,0-.34.04-.72.09-1.07.22-.21.07-.39.18-.51.27-.05,0-.1,0-.14,0-.31,0-.59.11-.87.3-.27.19-.62.51-.88,1.01-.36-.13-.85-.29-1.55-.29-.24,0-.52.02-.84.07-.92.14-1.5.56-1.73,1.23-.11.04-.21.09-.3.14-.26,0-.54.03-.82.05-.13.01-.27.02-.4.03-.3-.26-.67-.39-1.06-.39-.11,0-.23.01-.35.04-.93.21-1.52.66-1.74,1.36,0,0,0,0,0,0-1.88.08-3.18.52-3.89,1.31-.25-.15-.53-.23-.82-.23-.01,0-.02,0-.03,0-1.16.02-1.89.44-2.17,1.25-.1.28-.12.53-.09.76-.05.04-.11.08-.17.13h-2.65c-.17,0-.34.03-.5.08-.61.2-1.89.62-2.51,1.62-1.16.08-1.84.53-2.3.84-.36.24-.47.31-.88.31-.13,0-.31.01-.43.04-.99.24-1.76.67-2.31,1.28-.03,0-.06.01-.09.02-.22.04-.52.11-.84.23-.24-.08-.54-.15-.91-.15-.14,0-.28.02-.42.05-1.21.32-2.66.8-3.72,1.77-.21,0-.43-.02-.65-.04-.36-.02-.72-.05-1.04-.05-.4,0-1.39,0-2.07.66-.25-.08-.55-.19-.95-.25-.08-.01-.16-.02-.24-.02-.12,0-.24.01-.36.04-1.25.28-1.99.75-2.37,1.51-.16-.01-.32-.02-.48-.02-1.51,0-2.98.58-4.21,1.65-.98,0-1.66.2-2.15.49-.16-.02-.33-.04-.49-.04-.88,0-1.55.35-2.02.63-.3-.21-.66-.33-1.02-.33-.28,0-.55.07-.8.22-.98.6-1.95,1.21-2.91,1.83-.3-.03-.58-.05-.86-.05-1.67,0-2.77.59-3.57,1.01-.48.26-.76.4-.99.4-.11,0-.25-.03-.42-.1-.2-.08-.4-.12-.61-.12-.37,0-.74.13-1.04.38-.19.16-.33.35-.43.57-.5.23-.91.56-1.22.98-.35-.05-.68-.07-1-.07-.67,0-1.33.09-2.26.3-.47.07-1.25.32-1.64,1.21-.04.01-.07.03-.11.04-.54-.12-1.07-.18-1.6-.18-1.67,0-3.14.63-4.02,1.66-.05,0-.1-.01-.14-.02-.58-.08-1.17-.16-1.73-.16-.39,0-1.59,0-2.36.94-.03.04-.06.08-.1.13-.14-.05-.31-.08-.5-.08-1.72.07-2.48,1.02-2.85,1.48-.01.01-.02.03-.03.04-.36.06-.77.06-1.2.06-.77,0-1.64,0-2.58.26-.14.04-.36.12-.59.28-.23,0-.43.03-.61.09-.46.15-.81.42-1.09.63-.03.02-.06.05-.09.07,0,0-.03,0-.04,0-.18,0-.45,0-.75.08-.23-.05-.47-.08-.71-.08-.39,0-.71.07-.95.12-.06.01-.11.03-.17.04-.25-.13-.55-.22-.84-.22-.07,0-.14,0-.21.02-.58.09-1.11.36-1.62.63-.19.1-.47.24-.67.33-.26-.17-.56-.26-.87-.26-.23,0-.47.05-.69.16-.17.08-.35.15-.52.23-.67.28-2,.83-2.5,2.03-.34.02-.69.02-.87.02h-.75c-1.1,0-2.24.04-3.17.5-.31-.1-.72-.19-1.27-.19-.39,0-.81.04-1.28.13l-.41.07c-.47.07-.69.14-1.12.41l-.15.09c-.25.15-.77.47-1.46.48-.69,0-1.28.45-1.5,1.08-.28-.14-.63-.28-1.09-.35-.08-.01-.15-.02-.23-.02-.2,0-.39.04-.58.11-.36.14-.77.25-1.18.37-.9.25-1.88.53-2.65,1.08-.2-.02-.4-.04-.57-.05-.06,0-.12,0-.18,0-.28-.26-.65-.41-1.06-.42h0c-1.09,0-1.69.57-1.97.89-.06,0-.14.02-.2.02-.31.03-.75.08-1.23.25-.09.02-.24.04-.41.06-.46.07-.99.14-1.44.35-.3.14-.53.33-.69.47,0,0,0,0-.01,0-.27-.18-.58-.26-.88-.26-.47,0-.94.21-1.26.6-.1.12-.17.25-.23.39-.2-.07-.42-.12-.66-.12-.63,0-1.04.31-1.21.44-.03.03-.19.1-.67.11h-.32c-.17.02-.35.03-.54.03-.36,0-.76-.03-1.28-.26-.14-.06-.29-.1-.45-.12-.14-.02-.26-.02-.37-.02-.57,0-1.54.18-2.05,1.32-.76.22-1.28.53-1.62.88-.22-.04-.45-.11-.68-.18-.34-.1-.69-.21-1.06-.22-.03,0-.08,0-.1,0-.22,0-.42.03-.6.08-.16-.05-.33-.08-.51-.08-.01,0-.02,0-.03,0-.36,0-1.08.11-1.58.73-.04,0-.17,0-.19,0-.14-.12-.3-.21-.48-.27-.18-.06-.36-.1-.55-.1-.36,0-.72.12-1.01.36-.15.13-.64.29-.99.42-.69.24-1.68.58-2.34,1.32-.04-.01-.08-.03-.13-.04-.25-.08-.56-.19-.97-.25-.08-.01-.15-.02-.23-.02-.18,0-.36.03-.53.09-2.52.87-5.81,1.3-9.25,1.69-.78.05-1.39.39-1.82,1.02-1.13-.15-2.53-.31-3.85-.31-2.1,0-3.45.43-4.24,1.34-.13.15-.26.34-.38.56-.49.04-1.02.07-1.56.1-2.9.17-6.17.36-8.33,1.56h-2.95c-.16,0-.31.02-.46.07-1.16.35-2.37.75-3.41,1.36-.09,0-.78.01-.78.01-.1-.08-.2-.15-.32-.2-.22-.11-.47-.17-.71-.17s-.48.05-.71.16c-.52.26-.91.58-1.21.91h-4.32c-.12,0-.23.01-.34.04-.97.21-1.55.63-1.9,1.08-.36.02-.68.04-.99.06-.73.05-1.33.08-1.96.08-.75,0-1.53-.06-2.55-.18-.21-.03-.44-.05-.63-.05-1.08,0-1.68.5-2.02.95-.31-.1-.73-.21-1.29-.21-.11,0-.23,0-.35.01h.02c-.82.04-1.34.39-1.66.69-.12,0-.23-.02-.32-.02-.41,0-.77.1-1.07.3-.08.03-.18.04-.27.06-.28.06-.65.14-1.02.33-.64-.07-1.16-.1-1.64-.1-1.43,0-2.56.28-3.51.87h-3.47c-.23.01-.44.04-.62.08-.13-.04-.27-.07-.42-.08-.1,0-.19,0-.27,0-1.04,0-1.6.39-2.01.78-.23.04-.63.05-.95.05-1.07.03-2.28.06-3.04.88-.08-.01-.15-.02-.23-.03-.31-.05-.61-.09-.94-.09-.54,0-1.03.13-1.49.39-.08-.03-.16-.06-.24-.09-.38-.14-.82-.3-1.35-.42-.11-.03-.23-.04-.35-.04-.2,0-.41.04-.6.12-.88.35-1.65.76-2.38,1.16-.22-.04-.45-.07-.68-.07-.81,0-1.72.26-2.76.8-.34-.07-.7-.11-1.08-.11-.51,0-1,.07-1.42.13-.35.05-.69.1-.98.1s-.5-.05-.7-.15c-.21-.11-.43-.17-.67-.18-.12,0-.24,0-.35,0-1.1,0-1.93.31-2.47.92-.04.04-.07.08-.1.13-.07,0-.14,0-.21,0-.88,0-1.89.07-2.77.55-.05.02-.1.04-.14.06Z"/>
          <path class="cls-4" d="M129.69,18.44c.82.16-.06.31,0,.71.25.52.49-.04,1.13,0,.28-.87,1.65-.38,3.41-.71.26-.05.96-.69,1.13-.72.9-.13,1.93.1,2.84,0,.68.07.29-.53.57-.71.18-.11.97.12,1.13,0,.08-.06,1.13-.71,1.14-.71.86-.07,1.1.47,1.7.36,1.5-.27,3.11-1.33,4.53-.71,1.29-.38,2.5-.81,3.41-1.43.66.3,1.52.47,2.84.36,1.24-.13,2.33-.71,3.41-1.07.98-.33,2.15-.48,2.83-1.07,1.58-.07,2.89.1,3.97,0,1.02-.09,1.42-.54,2.27-.71.48-.1,1.2.04,1.7,0,1.71-.13,2.2-1.12,5.11-.71.58-.35,1.15-.71,1.7-1.07,2.78-.33,3.96.41,5.11-1.07.75.36,2.09.35,2.83.71,1.46-.27,3.22-.36,3.98-1.07,4.07.4,5.64-.95,8.51-.36,1.24.06,1.8-.29,1.7-1.07,1.8-.17,1.48.54,2.84,0,.56-.22.9-.23,1.7-.35.47-.07.92-.48,1.7-.36.22.04.73.36.56.36.48,0,1.33-.76,2.84-.36.24.07-.07.4.56.36.36-.02,1.57-.22,2.27-.36,1.17-.22,2.27-.53,3.4-1.07.9-.03,2.16.17,2.27-.36.32.2.73.2,1.13.36.54.22,5-.01,6.81-.36,1.11-.21,2.43-.58,2.83-1.07,1.84.27,2.44.88,5.1.36,1.13-.22,1.56-.4,2.27-.71,1.29-.07,1.51.65,3.4.36.28-.04.66-.36.57-.36.9-.04,1.02.42,1.7.35,1.13-.1,2.29-.48,3.4-.71,1.4-.05,2.73-.05,3.4.36,1.19-.32,2.52-.55,3.4-1.07,2.01-.04,1.13,1.04,2.84.36.91-.37,1.38-.56,2.27,0,.03.02-.02.36,0,.36.89,0,2.01-.66,3.41-.71-.07,0,.14.41.57.36.14-.02,0-.42.57-.36.05,0,.12.34.57.36.18,0,.39.01.57,0,2.24-.15,5.03-.28,7.37-1.07,2.76.09,5.44,1.36,7.37,0,.62.09.39.71,1.14.71,1.82.31,1.18-.92,2.27-1.07.66.06,1.01-.08,1.14-.36,1.3.54.82.58,2.27.36.56-.09,1.69.22,2.26.36-.06-.01.25.61.57.36.02-.01,0-.36,0-.36,1.45.24,1.47.24,2.27.71,1.78.17,1.5-.96,2.83-1.07,1.78.19,3.17.62,4.54,1.07,1.94-.33,4.68-.15,5.67-1.07,2.23,1.41,6.08-.38,7.94,1.07,3.06.29,4.71-.76,6.24.36.35-.49,2.18-.05,2.27-.71.65.59,1.84.11,3.4.36,1.18.18.94.1,2.84,0,.43-.02,1.3-.08,1.7,0,1.3.25.92.05,3.4,0,.6,1.83,3.7.12,4.54,1.43.73-.49,2.46-.35,3.97-.35-.24.74.39.94.57,1.42,1.02.05,1.2-.44,2.27-.36.89-.03,2.16.17,2.27-.36,1,.62,2.11.14,3.4.36.14.02.05.34.57.36.4.01,1.36-.11,1.7,0,.19.06.43.68.57.71,1.4.28,4.31-.38,4.54,1.07.91.14.98-.39,1.7-.36,1.46.07.92.52,2.27.71.87.13,1.99-.18,2.84,0,.44.09.43.61,1.14.71.49.07,1.25-.13,1.7,0,.22.06.39.67.57.71.49.11,1.18-.07,1.7,0,.86.12,1.81.56,3.41,0-.11.29-.57.36-.57.71,1.01-.41,1.97,0,3.4.36.5.12,1.69.52,2.84.71.19.03,1.02-.09,1.13,0,.02.02-.02.36,0,.36.01,0,2.19-.62,2.27.36.07.85,3.58-.19,2.83,1.43,1.39-.7,3,.76,5.11.71.3.29.59.58.57,1.07.68.13,1.61-.16,2.27,0,.43.11.74.97,1.13,1.07.27.07.71-.37,1.14-.36-.07,0,.21.35.57.36.73.02,1.18.65,2.84.36.25.68,1.22.9,1.13,1.78.99-.27,1.37.26,1.7.36.49.14,1.07.17,1.7.36.46.14.85.64,1.14.71.42.11,1.33-.16,1.7,0,.5.21.66.84,1.13,1.07.82.4,2.31.42,2.27,1.79,2.12.21,4.23.43,4.54,1.78,2.12-.38,1.62.88,3.4.71.58.47.56,1.31,1.13,1.78,2.12-.14,3.33.28,3.4,1.43.76,0,1.51,0,2.27,0,.72.46.66,1.28,1.14,1.78.44.47,1.2.68,1.7,1.07.56.44.63.91,1.14,1.42.78.8,1.68,1.89,2.27,2.85.41.33,1.03.54,1.7.71-.09,1.13,1.51,1.19,1.13,2.5-.03.44.87.47,1.14.71.14.13-.18.62,0,.71.59.3.46.62.56,1.78.02.26.71.39.57.71-.05.11-.63-.01-.57.36.08.45.92,1.79,1.14,2.49.14.45-.17.97,0,1.43.16.41,1.25,1.57-.57,2.14.87.76.34,1.92,0,2.85-.2.54.39,1.37-.57,1.42,1.36.45-.31,2.81,1.14,3.21-.5.24-.33,1.05-1.14,1.07-.91.03-.28.97-.56,1.42-.05.09-1.01-.07-1.14,0-.37.22.42,1.22-.56,1.07-.42,1.1,1.56.68,1.14,1.78-.59.5-1.98.55-2.27.71-.72.42.17.48-.56,1.07-1.64.38-1.88,1.08-1.13,2.14-.57,0-1.13,0-1.7,0,.69,1.63-1.56,1.4-1.13,2.85-.51.28-1.28.38-2.27.36.26,1.12-.5,1.59-2.27,1.43,1.17,1.38-1.62,1.57-1.7,2.5-.07.88-2.86,2.05-3.97,1.43,0,.48,0,.95,0,1.43-.75.08-.89.68-1.7.71-1.13.04.12,1.53-2.27,1.42,0,.71,0,1.43,0,2.14-1.71.45-3.11.33-4.53,1.07-.17.09-.41.67-.56.71-.19.05-1.03-.1-1.14,0-.27.23.21.81,0,1.07-1.02-.04-1.19.44-2.27.36.02.61-.42.92-1.14,1.07.68.47.22.56,0,1.07-1.32-.11-2.17.06-2.83.36-.77.11-.47.89-.57,1.43-1.46.27-2.41.87-2.83,1.78-1.83.28-2.48,1.3-3.97,1.79,0,.48,0,.95,0,1.43-2.56-.49-2.83,1.39-4.54.36-.5.63-1.58.91-1.13,2.14-1.82-.31-1.78.55-2.27,1.07-1.02.04-1.19-.43-2.27-.36-2.12.28-.03,1.25-1.13,1.78-1.53-.25-1.1.73-1.71,1.07-1.81.21-1.76-.67-2.84,0-.64.4-.94.63-1.7,1.07-.55.31-1.13.81-1.71,1.07-.65.29-3-.12-2.27,1.07-.92.1-.97-.34-1.7-.36-.66.19-.69.75-1.13,1.07-.43.31-1.24.42-1.7.71-.45.29-.67.8-1.14,1.07-1.23.72-3.88,1.01-4.54,2.5-3.22-.32-5.43.54-3.97,2.14-1.38.9-1.21-.75-3.4-.36-1.46.27-2.4.87-2.84,1.78-1.2-.32-.76.52-1.14.71-.43.22-1.25.2-1.7.36-.25.09-.51.48-1.14.36-.44.32-.61.8-.57,1.42-1.73.26-1.66-.61-3.4-.35-1.28.2.69.56-.57,1.07-.66-.06-1.01.08-1.13.36-.83-.2-2.93.42-2.84-.36-1.59.35.82.95-.57,1.43-3-.19-5.46.52-3.97,2.14-1.82.31-1.78-.55-2.27-1.07-2.01.04,1.21,1.18-.57,1.07-.2.47-1,.56-1.13,1.07-1.14,0-2.27,0-3.41,0-.99.33-1.97.66-1.7,1.78-2.82-.47-2.41,1.1-4.54,1.07-.82.2-1.38.55-1.7,1.07-.46.31-1.56.21-1.7.71-.46-.07-.56-.36-1.14-.36-1.46.39-2.73.9-3.4,1.78-1.17.22-3.94-.57-3.4.71-1.19.15-1.5-.24-2.27-.36-1.97.45-1.04,1.04-1.7,1.79-2.31-.77-4.09.36-5.1,1.42-1.29-.1-2.14.09-2.27.71-2.09-1.16-2.83,1.75-3.97,0-1.14.71-2.28,1.42-3.4,2.14-3.83-.73-4.35,2.08-6.81,1.07.09.42-.12.63-.57.71-.76.23-1.05.76-1.14,1.42-1.6-.37-2.36-.37-3.97,0-.66.06-.48.65-.56,1.07-.66-.06-1.01.08-1.14.35-2.46-.86-4.64.02-5.11,1.42-1.92-.13-4.38-.96-3.97,1.07-.77.35-1.65-.36-1.7-.36-1.5.06-1.52,1.24-2.26,1.43-1.27.32-2.57-.03-3.97.36-.26.07.04.33-.57.36-.14,0-.45-.04-.57,0-.37.12-.81.6-1.13.71-.47.16-1.16-.1-1.13.36-1.18-.78-1.83.31-2.84-.36-.96.15-2.55,1.68-3.4.72-1.07.51-2.52.79-2.28,2.14-1.39.65-4.38-.1-5.67.72-.88.55-.59-.4-2.84,0-.89.16-.62.04-1.14.36-.22.13-1.07.7-2.27.71-.05.97.94.72,0,1.43-1.82.3-1.76-.56-2.84-.72-1.41.54-3.38.73-3.98,1.79-.35-.49-2.18-.05-2.27-.71-.7,0-.75.53-1.13.71-.51.24-1.07.13-1.7.36-.37.14-1.29.16-1.7.36-.5.23-.95,1.22-2.27.35.3.29.59.58.57,1.07-.47-.18-1.89.24-2.27,0-.9-.57-.25.28-2.27.36-.81.03-1.67.15-2.84-.36-1.06-.13-.67.84-1.13,1.07-.26.13-1.78.22-1.71,1.07-1.22.29-2.27-.33-2.83-.36-.47-.02-1.04.62-1.14,0-.55.01-.44.44-.57.71-.9-.03-2.16.17-2.27-.36-.99.81-3.23.82-3.4,2.14-1.19.15-1.5-.24-2.27-.35-2.68.93-6.12,1.38-9.64,1.78-1.07.04-.4,1.18-1.71,1.07-2.54-.34-7.74-1.04-7.37,1.43-3,.37-8.36.13-10.78,1.78-1.13,0-2.27,0-3.4,0-1.28.38-2.49.81-3.41,1.43-.89-.03-2.16.17-2.27-.36-.53.26-.86.65-1.14,1.07-1.7,0-3.4,0-5.1,0-.7.15-1.17.46-1.14,1.07-3.11.13-3.87.36-6.8,0-1.53-.24-1.1.73-1.7,1.07-1.02.05-1.2-.44-2.27-.36-.7-.02-.76.55-1.13.71-.21.09-.99-.12-1.14,0-.45.35-1.45.25-1.71.71-2.1-.26-3.82-.31-5.1.71-1.32,0-2.64,0-3.97,0-1.87.11,2.22,1.1,0,1.43-1.7.36-1-.79-1.13-1.43-1.18-.07-.92.51-1.7.71-1.19.3-3.77-.23-3.41,1.07-1.92.02-2.42-.64-3.41.36-.83-.19-1.43-.53-2.26-.71-1.04.42-1.93.93-2.84,1.43-.95-.61-2.55.21-3.4.71-1.73-.74-3.39.55-5.11-.36-1.24-.06-1.8.29-1.7,1.07-1.22-.02-2.57-.15-3.41.36.12-.07-.93.39-.56.36-1.36.12-.64-.96-2.84-.36-.3.08-.45.44-1.13.36-.04,0-.02-.96-.57-.71-1.52-.25-1.09.74-1.7,1.07-1.23.27-.88-1.05-1.13-1.43-.59-.88-1.14.82-1.14-.71,0-.09-.1-.66,0-.71,1.19-.61-.43-.99.57-2.5,1.46-.51,3.21-.83,3.4-2.14.81-.35,1.61.35,1.71.35.46,0,.56-.39,1.13-.35.51.03,3.25.91,3.97.36.05-.04-.07-.34,0-.36.21-.06,1,.1,1.14,0,.51-.4.78-.18,1.7-.36.59-.11,1.38-.19,2.27-.36.58-.11,1.38-.18,2.27-.35.53-.1.95-.24,1.71-.36.43-.07,4.48-.95,5.1-.36,1.24-.53,3.05-.7,3.97-1.43,2.51.38,4.38-.71,5.67,0,.72-.5,2.77-.15,2.83-1.07,1.96.29,2.4-.67,3.41,0,.66-.06.48-.65.56-1.07,3.44.14,6.32-.07,7.94-1.07,4.3.21,7.27-.42,9.07-1.78,1.38.45,3.02.25,4.54,0,1.18-.19,1.96-1.21,3.4-.71,1.47-.03.6-1.52,2.84-1.07-.01.35-.7.28-1.13.36.16,1.25,2.11-.9,2.27.36.63-.25,1.48-.37,2.27-.71.2-.09.39-.67.57-.72.56-.16,2.7.22,2.27-1.07.67.88,2.14-.73,2.83.36,1.72-.59,3.05-1.41,6.24-1.07.33-.2.73-.19,1.13-.36.65-.26,1.18-.4,1.7-.71.82-.5,3.08-.23,3.97-1.07,1.02-.04,1.2.44,2.27.36.23-.38,1.21-.13,1.7-.36.19-.09.39-.66.57-.71,1.68-.48,4.89-.03,5.67-1.42,2.03-.12,3.57-.07,5.11-.36,1.37-.26,2.36-1.5,4.54-1.07,1.17-.1,1.13-.95,1.7-1.42,1.98.29,4.86.83,6.24,0,1.19-.72,1.41.48,2.84-.36,1.16-.1,1.13-.95,1.7-1.43,1.76.46,1.53.18,2.84-.71.49-.34.93-.71,1.7-1.07,1.67.65,4.68,1.01,6.81.36,1.42-.77,3.16-1.34,4.54-2.14.45.19.92.37,1.7.36.93.22.96-.89,1.7-1.07.64-.15,1.66.19,2.27,0,.63-.2.85-.68,1.7-1.07,3.22.12,4.61-.9,6.24-1.78.75.49,3.18.47,4.54,0,.24-.09.36-.66.57-.71.3-.09.85.1,1.14,0,1.41-.52,3.02-1.1,3.4-1.78,2.1.25,2.43-.61,4.54-.35.77-.35,1.13-.95,1.7-1.43.83.19,1.43.53,2.26.71.38-.31,1.66-.21,1.71-.71.05-.6,1.51-.27,2.84-.71.32-.11.29-.59.56-.71.2-.1.98.12,1.13,0,.52-.4,3.21-1.13,5.11-1.43,1.53-1.3,4.07-1.96,7.37-2.14.67-.06.48-.65.56-1.07.66.06,1.01-.08,1.14-.36,1.36.18,2,.57,3.4,0,.27-.11.42-.3.57-.36.94-.35,3.77-.75,3.97-1.78,1.51-.59,3.23.68,3.4-1.07.95,0,1.89,0,2.84,0,.7-.12.64-.83,1.13-1.07.68-.33,2.41.27,2.27-.71,1.01.67,1.45-.29,3.4,0,.77-.35,1.14-.95,1.7-1.42,2.2-.24,2.02,0,3.4-.36,1.27-.11,1.29-1.01,2.27-1.43.69-.29,1.5-.11,2.27-.36,1.02-.31.69-.46,2.27-.71.5-.08.97-.24,1.7-.36.56-.09.29-.28.57-.36,1.12-.3,4.44-.64,4.54-1.78.05-.62,2.01-.18,1.7-1.42.66.06,1.01-.08,1.14-.36,2.14.27,2.71-.44,4.54-.36,1.17-.1,1.13-.95,1.7-1.42,1.84.21,2.64-.24,3.97-.36.82-.08.2-1.06,1.13-1.07.3-.29.59-.58.56-1.07.69-.12,1.6.15,2.27,0,.71-.16.66-.48,1.13-.71.47-.23,1.15-.12,1.7-.36,1-.42,2.43-1,3.4-1.78.22-.17.7-.31.56-.71.66.06,1.01-.08,1.14-.35,2.36.13,4.06-.81,5.67-1.43.4-.15.78-.5,1.13-.71.26-.15.9-.62,1.13-.71.9-.36,2.3-.32,3.41-.71.76-.27,1.39-1.38,2.83-1.07.55-.73,1.16-1.41,1.7-2.14,2.06.11,3.69-.06,5.11-.36,0-.6,0-1.19,0-1.78,1.69-.51,1.93.29,3.4-.36.49-.2,1.65-.44,1.7-1.07.03-.33,1.32-.54,1.7-.71.99-.43,1.17-.99,1.7-1.42.92-.1.98.34,1.7.36-.23-.86,1.04-.78.57-1.78,1.61-.06,2.36-.65,3.97-.71,1.27.21.55-1.03,1.7-1.07,1.09-.03.63-.65,1.13-1.07.48-.4,1.63-.85,2.27-1.78.76,0,1.51,0,2.27,0,.87.05.21-.79.56-1.07.26-.2,1.39-.17,1.7-.35.23-.13.33-.61.56-.71.52-.23,1.2-.18,1.7-.36.25-.09.51-.49,1.14-.36,0-.95,1.79-.78,1.7-1.78.68-.04,2.46.17,2.83-.36.14-.19-.17-.54,0-.71.24-.25.9-.49,1.14-.72.73-.68,1.34-1.15,1.7-1.78,1.82-.17,2-1.36,3.97-1.43-.05-1.33,2.45-1.08,1.7-2.85,1.26.2.81-.68,1.7-.71.84-.15-.23-.46,0-1.07,2.77-.99,4.7-2.51,7.37-3.56,0-.48,0-.95,0-1.43.84-.18,1.43-.53,2.27-.71-.09-1.96,2.16-2.44,1.7-4.64,1.08-.15,1.03-1.02,2.84-.71.25-.69.61-1.32,1.13-2.14.23-.37,1.49-1.98,1.7-2.85.21-.87-.19-2,0-2.85.2-.92,1.61-1.56,1.13-3.21-.3-1.05-1.09-2.38-1.7-3.92-.1-.24-.56-.33-.57-.36-.41-1.33.05-2.17-1.13-3.21-.49-.43-1.18-.61-1.7-1.07-.15-.13.18-.62,0-.71-.47-.24-1.65-.41-1.7-1.07-.04-.47-.78-.12-1.14-.36-.19-.13.18-.57,0-.71-.53-.42-1.2-.71-1.7-1.07-.44-.32-.66-.76-1.14-1.07-.95-.62-2.58-1.14-3.4-1.78-.73-.56.27-.88-1.14-1.43-.3-.12-.85-.2-1.13-.36-.44-.25-.16-.81-.57-1.07-.17-.11-.98.12-1.13,0-.67-.51-1.4-.98-2.27-1.78-2.27.35-1.71-1.07-3.98-.72,0-.71-1.55-.45-1.13-1.43-1.79-.4-1.29-.03-3.4,0-.02-.35-.7-.27-1.14-.36-.03-1.17-2.43-.85-2.27-2.14-1.13.27-1.26-.6-1.7-.71-.43-.11-1.32.16-1.7,0-.38-.16-.74-.98-1.13-1.07-1.86-.46-3.48-.13-6.24-.36-.33-.74-1.19-1.15-1.7-1.78-1.1.06-1.61-.12-2.27-.36-.31-.11-1-.69-1.14-.71-.85-.17-2,.2-2.84,0-.23-.06.02-.34-.56-.36-.72-.02-.73-.61-1.14-.71-1.3-.33-2.3.1-3.4-.36-.77-.32-1.64.01-3.4-.35-.43-.09-.44-.61-1.14-.71-.49-.07-1.25.13-1.7,0-.22-.06-.4-.67-.56-.71-.51-.11-1.19.1-1.7,0-.82-.15-3.52-.43-5.67-.71-.97-.13-1.08.28-1.14.72-.77-.05-1.16-.15-1.7-.36-.38-.15-.79-.58-1.13-.71-.65-.26-2.53-.12-2.27-1.07-1.97.19-5.38-.53-5.67.71-.67-.53-2.36-.42-2.27-1.43-1.18.15-1.5-.24-2.27-.36-1.81-.31-1.75.56-2.83.71-.79-.04-1.15-.15-1.7-.36-.39-.14-.89-.65-1.14-.71-1.29-.35-3.19-.11-4.54-.71-.97-.02-1.47.26-1.7.71-1.37-.45-3.44-.46-4.54-1.07-1.06.05-1.9.24-2.27.71-1.64-.09-1.14-.44-2.84-.71-.52-.08-1.44-.19-2.27-.35-.82-.16-1.18-.05-1.13-.71-1.18.21-1.94.69-2.27,1.43-1.6-.04-3.75-1.55-4.54,0-.53-.38-2.1-.11-1.7-1.07-1.57.09-2.9-.12-3.97,0-1.32.15-1.69.73-2.84.71-1.65-.93-6.23-.29-7.94-1.43-.82.62-3.19.49-5.67.71-.75.07-2.88,1.02-2.84-.35-.52.22-.51.53-1.14.71-.47.13-1.92-.22-2.27,0-.91.57-.68-.04-1.7,0-.47.02-.56.39-1.14.36.04,0-.18-.34-.56-.36-1.77-.06-3.64-.1-5.11.71-1.22-.3-1.93-.92-3.97-.71-.97-.13-1.07.28-1.14.71-1.06-.05-1.9-.23-2.27-.71-.62.09-.39.71-1.13.71-.91.07-.98-.3-1.7-.36-.93-.07-.98.4-1.7.36.03,0-.19-.35-.57-.36-.19,0-1.6-.08-1.7,0-.03.02.04.35,0,.36-.57.05-1.2-.35-1.14-.36-1.22.2-1.03.65-2.27.71-.9.05-1.89-.34-2.84-.36-.92,0-.97.27-1.7.36-1.81.2-3.35-.2-4.54,0-.61.1-.39.7-1.13.71-2.42-.03-3.97-.6-6.81-.36-.53.26-.86.65-1.13,1.07-.89.18-1.01-.44-1.7-.35-.62.08-.38.72-1.13.71-1.21.16-1.08-.51-1.14-1.07-.34.53-1.23.02-1.14,0-.56.12-.8.64-1.13.71-1.06.25-2.62-.03-3.41.71-2.98-.73-5.53-.73-8.51,0-.82.08-.19,1.06-1.13,1.07-1.15.4-.83-.63-1.14-.71-.22-.06-.76.36-1.13.36-.46,0-2.14-.68-3.97-.36-.53.26-.86.65-1.13,1.07-1.42-.9-2.23.41-3.97.36.72-1.61-2.88.63-3.41-.71-.75.13-.89.63-1.7.71-1.6.35.82.95-.57,1.43-1.84-.59-3.06.64-3.4-.71-.92-.1-.98.34-1.7.36-.8.02-1.15-.45-1.7-.36-.6.11-.39.7-1.13.71-1.99-.03-2-.53-3.98,0-.45.12-2.22.39-1.7,1.07-1.59-.04-2.55-.5-3.97.36.12-.07-2.04.96-2.27,0-.77.35-1.14.95-1.7,1.43-1.01-.03-1.2-.34-2.27-.36-.09,0-.59.44-1.14.36-.86-.14-.8-.36-1.7,0-.97-.13-1.07.28-1.13.71-1.15.29-1.56-.43-2.27-.36-.56.06-.96.78-1.7,1.07-.75-.13-.9-.63-1.7-.71-1.74.34-1.78,1.74-3.97,1.78.09-.42-.12-.63-.57-.71-2.02,1.01-3.65.06-5.11,1.43-.75-.46-1.71-.22-2.27.36-.9-.03-2.17.17-2.27-.36-1.53.58-2.7,1.39-3.4,2.5-1.99-.15-.44-.83-2.84-.36.07-.01-.25.6-.57.36-.02-.02,0-.36,0-.36-1.38.17-2.7.32-2.83.36-.5.13-1.28.87-1.71,1.07-3.05-.52-5.83.69-7.94,1.78-1.41-.47-2.35,1.05-2.84,0-.27.26-.84.48-1.14.72-.22.17-.71.3-.57.71-2.26-.2-1.71-.2-3.97,0-.97-.02-1.47.26-1.7.71-2.32-.15-3.64.33-5.1.71-.84.16.22.46,0,1.07-1.26.28-3.08.21-3.4,1.07-2.33-.89-2.27.64-5.1.36-.7.16-1.17.46-1.14,1.07-1.69,0-3.45-.04-3.4,1.06-2.82-.35-3.38.73-5.1,1.07-.05.97.94.72,0,1.43-1.53.25-1.1-.74-1.7-1.07-.68-.07-.28.53-.57.71.15-.1-1.59.4-1.14.36-.41.03-.96-.54-1.7-.36-.59.14-1.18.47-1.7.71-.24.11-1,.67-1.14.71-.46.12-1.27-.15-1.7,0-.29.1-2.24.68-2.27,1.07-.04.47-.78.12-1.13.36-.73.49-1.38.97-1.14,1.78-1.14.12-1.77-.07-1.7-.71-.82.44-.86,1.36-1.7,1.78-2.32.45-2.68-.03-5.1.36-.68-.11-.27.58-.57.71-.62.28-1.64-.29-1.7.35-.04.47-.77.12-1.13.36-.49.32-.61.95-1.14,1.43-.34.31-1.43.34-1.13,1.07-1.81.21-1.75-.67-2.84,0-1.07-.12-.67.82-1.14,1.07-.54.29-2.99-.21-2.27,1.07-.94,0-1.89,0-2.84,0-.67.06-.47.65-.56,1.07-2.19-.77-4.54.46-3.4,1.78-2.29.11-4.08.53-3.97,2.14-.97.02-1.47-.26-1.7-.71-.77.11-.47.89-.57,1.43-1.6.06-2.36.65-3.97.71,1.56,1.61-1.79,1.53-3.4,2.14.44.32.61.8.57,1.42-.97-.11-1.19-.28-2.27,0-.06.02-1.12.33-1.13.36-.08.1.13.66,0,.71-.89.34-1.98-.37-2.27.36-.07.19.15.55,0,.71-.16.17-1,.21-1.14.36-.63.72-.57,1.26-1.14,1.78-2.44.13-2.64,1.67-5.67,1.42.8,1.25-1.59,2.29,0,2.85-.37.48-1.21.67-2.27.71-.07.64.69.75.56,1.43-1.14.12-1.77-.07-1.7-.71-1.22.9-2.84,1.54-2.27,3.57-.8.03-1.61.06-1.7-.36-.59,0-.4.45-.57.71-.22.35-.33.15-.57.36-.61.54-.76.49-1.14,1.43-.15.39-.8.7-1.13,1.07-.5.55-.48,1.22-1.7,1.42-.55.88.15,2.15-.57,3.21-.2.31-.98.23-1.13.71-.47,1.47.04,2.76-.57,4.28-.08.21-.57.36-.57.36-.18.81,1.16,1.39,0,2.5.14.39,1.13.24,1.14.71-.09.42.12.64.56.71.03,1.25.1,2.9,1.14,3.92.42.42.03.8.57,1.78.2.36.99.49,1.14.71.19.3-.22.77,0,1.07.95,1.29,3.01,2.12,3.4,3.56.41.81,1.71,1.07,2.84,1.43-.22.88.98,1.75,2.27,2.49.2.12.94-.12,1.14,0,.18.11-.2.61,0,.71.34.19,1.38.15,1.7.36.59.39.57,1.13,1.14,1.42.35.19.72.19,1.14.36.39.15.29.21.56.36.71.36,2.04,1.13,3.97,1.07.13,1.22,1.69,1.55,3.4,1.78-.1,1.25,1.92,1.17,2.27,2.14.95,0,1.89,0,2.84,0,.38,1.55,3.4,1.43,4.54,2.49,4.17-.24,5.76,1.13,9.64,1.07.58.47.56,1.31,1.13,1.78,1.02.04,1.2-.44,2.27-.36.64.55,1.63.88,2.27,1.43,3.78-.05,6.66.83,10.21,1.43.88.14,1.54.44,1.7,0,.76.23,1.06.76,1.14,1.43,1.75.26,1.09-.98,2.84-.72,1.73.46,4.74.11,5.11,1.43,1.66-.48,2.93.22,5.67,0-.16.74,1.67.26,2.27.71.72.55,1.08-.09,2.84.35.49.13.35.65,1.14.71,1.01.08,2.4.1,3.4,0,.98-.09,3.33-.53,5.11,0,.5.15.36.61,1.13.71,1.06.14,3.17-.7,3.4.35.7-.09.63-.87,1.13-1.07.84-.33,2.51.08,3.4-.36,1.78-.17,1.5.96,2.84,1.07,1.78.17,2.21-.51,3.4-.72,1.29-.1,2.13.09,2.27.72,1.59-.96,4.04-.46,5.67.35,1.22-.42,3.17-.38,3.97-1.07,1.26-.2.81.68,1.7.72.61-.13.4-.66,1.14-.72.72-.06,2.14-.13,2.83,0,.36.07,1.07.71,1.14.71.6.04,1.11-.53,2.83-.36.88.09,1.84.15,2.27.71.56.59,2.85-1.77,4.54-.71.83.52.79-.32,2.84,0,.18.03.79.35.57.36.98-.04,2.07-.6,3.4-.71.73-.06,1.56.11,2.27,0,1.06-.16,2.29-.98,3.97-.71.2.04.76.35.57.36.73-.02,1.97-.58,2.84-.71.86-.13,2.19.25,2.27-.35.84.19,1.43.53,2.27.71,1.65-.2,2.22-.2,4.54-.35.54-.04.4-.34.57-.36.51-.06.57.36.56.36,2.41-.24,4.44-1.2,7.38-.71.53-.38,2.09-.11,1.7-1.07,4.65-.16,7.65.11,11.34-1.07.95,0,1.89,0,2.84,0,1.65-.39,2.73-1.14,3.97-1.79.71-.1,1.57.12,2.27,0,.95-.16,1.39-.51,2.27-.71.93-.22,2.28-.18,3.4-.35,2.69-.43,5.27-1.32,9.64-.36,0,1.83-.83,2.34,0,3.92-.25.64-1.55-.14-1.7,0-.18.17.25.96,0,1.07-.46.2-1.87.41-2.84.71-1.76.55-2.67,1.17-5.11.36-1.42-.06-1.77.55-2.27,1.07-1.34.22-1.1-.73-2.27,0-.16.1-.4.66-.57.71-.57.19-1.64-.12-2.27,0-.3.06-.92.67-1.13.71-1.48.28-2.78.02-3.98.36-.57.16-.42.66-1.13.71-1.32.11-2.18-.06-2.84-.36-1.93-.02-2.11,1.05-2.83,1.78-.92.1-.98-.33-1.7-.36-.8.03-1.6.06-1.7-.36-.68-.12-.28.61-.57.71-.79.3-1.99-1.01-2.84-.36-.94.73-.89.56-3.4.71-.56.03-2.07.7-2.27,0-1.47.14-1.71,1.06-3.41,1.07-1.26.2-.81-.68-1.7-.71-.77.31-.65,1.01-2.84.71-.45-.06-.58-.38-1.14-.36-1.9.06-3.95,1.46-5.67.35-.75.36-2.11.33-2.27,1.07-1.02.04-1.19-.42-2.26-.36-1.24.08-1.47.59-2.84.71.02,0-.67-.43-1.13-.36-.32.05-2.26.46-3.4-.36-1.15-.24-1.24.57-1.7.71-.63.19-1.74-.23-1.7.36-1.66-.32-1.74-.32-3.4,0-.37-.36-1.3-.37-1.13-1.07-1.12,0-1.69.61-2.84.71-1,.09-1.85-.34-2.84-.36-1.71-.03-3.59,1.04-4.54,0-1.16.11-1.11.97-2.27,1.07-1.79.17-1.29-1.09-3.41-.71-.96-.13-1.07.28-1.13.71-1.45-.27-3.22-.36-3.97-1.07-.66.06-.47.65-.56,1.07-2.01.04-1.13-1.04-2.84-.36-.57.22-1.1.44-2.84.36-.99-.05-1.26-.56-2.27-.71-.85-.13-.84.34-1.14.36-.44.01-1.93-.5-2.84-.72-.2-.05-1.01.1-1.13,0-.49-.38-2.2-.22-3.97-.71-.97-.13-1.07.28-1.14.72-1.24-.23-1.17-.1-2.83-.36-.24-.03-.71-.36-.57-.35-.15,0-2.57,1.09-2.27-.36-.53.38-2.09.11-1.71,1.07-.77-.04-1.16-.15-1.7-.36-.35-.13-.83-.61-1.13-.71-.28-.09-.82.05-1.14,0-.99-.16-1.91-1.17-4.54-.71-1.79-.18-2.49-1.05-4.54-1.07-1.36-.14.32,1.63-1.71,1.07-.65-.53-.65-.9,0-1.43-1.8.67-2.37-.09-4.54.36,1.16-1.1-2.62-.61-3.97-.71.12,0-.27-.59-.57-.36-.4.31-.96.4-1.14-.71-.51.16-1.02.32-1.14.71-.69-.15-1.16-.46-1.13-1.07-1.01-.08-2.84.36-2.27-.71-1.26-.2-.81.68-1.71.71-1.2.17-1.08-.51-1.13-1.07-.81.03-1.61.06-1.7-.36-.53.26-.86.65-1.14,1.07-1.23-.61-2.2-1.17-3.97-1.78-.3-.1.07-.33-.57-.36-.55-.02-.84-.83-1.13-1.07-1.43.25-2.43-.2-3.4-.36-.3-.05-.88.1-1.14,0-.15-.06-.46-.7-.56-.72-1.1-.19-2.46.22-3.41,0-.22-.05.01-.33-.57-.35-.55-.02-.44-.43-.56-.71-1.13,0-2.27,0-3.41,0,.57-1.03-.67-1.02-1.7-1.43-.4-.15-.79-.56-1.14-.71-.41-.18-1.24-.14-1.7-.36-.25-.12-.33-.62-.57-.71-.71-.27-2.01-.05-2.84-.36-.28-.1-.81-.55-1.13-.71-.76-.39-2.27-1.38-3.97-1.43.17-1.53-2.67-1.17-2.83-2.5-1.61.3-1.47-.5-2.84-.35-.3-.29-.59-.58-.57-1.07-2.55.18-1.92-1.64-4.53-1.42-.4-1.62-1.4-3.65-3.97-2.86-.05-.5-.1-1.01.56-1.07-1.42-.77-2.32-1.85-3.4-2.85-.97-.9-2.08-1.84-2.84-2.85-.24-.75.39-.94.57-1.43-.82-.67-.83-1.85-2.27-2.14-.23-1.35-.48-2.89-1.14-3.92-.08-.13.16-.63,0-.71-.75-.38-.23-.73-.57-1.42-.43-.87-1.48-1.23-1.14-2.85.15-.73.98-.76.57-1.78-.03-.06-.96-.87-.57-1.07.62-.32.1-.19,0-.71-.11-.56.32-1.36-.57-1.42.57-.48.54-1.33,1.7-1.43.08-1.73.41-3.31,1.7-4.28,0-.71,0-1.43,0-2.14,1.24-.2,1.25-1.14,2.27-1.78.17-.11,1.03-.24,1.13-.36.24-.26-.27-.83,0-1.07.22-.2,1.45-.13,1.71-.36.47-.41.2-.95.56-1.42.13-.18.53.04.57-.36.03-.31.64-.95,1.14-1.43.14-.14.51-.3.57-.36.27-.33.17-1.01.57-1.43.42-.44,2.3-.63,1.7-1.42,1.47-.15,1.71-1.07,3.41-1.07-.61-1.33,1.41-1.02,1.14-2.14,1.33-.11,1.05-1.24,2.83-1.07.82-1.62,3.17-2.28,3.97-3.92,3.59-.6,5.33-2.35,6.81-4.28,1.78.17,2.21-.51,3.4-.71.68-.16.66-.77,1.14-1.07,1.07-.66,3.04-.71,3.4-1.78,2.07.23,3.02-.24,3.97-.71,1.16-.05.58-1.02,1.14-1.42.29-.22,1.36-.15,1.71-.36.32-.19,1.69-1.53,2.26-1.78.91-.39,2.45-.11,3.41-.71.47-.3.4-.97,2.27-.71,1.09-.14.45-1.38,2.27-1.07-.42-1.09,1.56-.68,1.14-1.78,1.93-.28,3.17.09,3.97-1.43.9.03,2.17-.17,2.27.36,1.13-.25,1.51-.95,1.7-1.78,2.6-.39,5.15-.8,7.38-1.43.76-.24,1.06-.76,1.14-1.42,2.5.33,3.91-.73,5.67-1.43.37-.15.73-.19,1.13-.36.62-.25,1.07-.46,1.7-.71.71-.28,1.25-.15,2.27-.36,1.5-.3,2.56-.96,3.98-1.43,1.37-.46,3.18-.51,3.97-1.42,2.59.32,3.21-.59,5.11-.71,1.16-.1,1.13-.95,1.7-1.43,3.57.34,4.54-.95,5.68-2.14,1.02.99,3.15-1.31,4.54,0,1.64-.52,3.36-.97,4.54-1.78,1.56.06,3.31.07,4.54-.36.29-.1-.08-.34.57-.36.55-.02,1.84-.15,2.27-.35.51-.24,1.12-1.14,3.4-.71,1.46-.04.91-1.33,1.7-1.78Z"/>
        </g>
      </g>
    </g>
  </g>
</svg>