<?xml version="1.0" encoding="UTF-8"?>
<svg id="_レイヤー_2" data-name="レイヤー 2" xmlns="http://www.w3.org/2000/svg" viewBox="0 0 32.26 25.89">
  <defs>
    <style>
      .cls-1 {
        fill: #103468;
      }
    </style>
  </defs>
  <g id="_デザイン" data-name="デザイン">
    <path class="cls-1" d="M9.11,25.89c-1.07,0-2.07-.42-2.83-1.17L.89,19.3c-1.19-1.19-1.18-3.13,0-4.32.58-.57,1.34-.89,2.15-.89s1.59.32,2.16.9l3.9,3.91L27.05.9c.58-.58,1.35-.9,2.16-.9s1.58.32,2.15.89c.58.58.9,1.34.9,2.16,0,.82-.31,1.58-.89,2.16L11.94,24.72c-.75.76-1.75,1.17-2.82,1.17h0Z"/>
  </g>
</svg>