<?xml version="1.0" encoding="UTF-8"?>
<svg id="_レイヤー_2" data-name="レイヤー 2" xmlns="http://www.w3.org/2000/svg" xmlns:xlink="http://www.w3.org/1999/xlink" viewBox="0 0 1161.21 144.73">
  <defs>
    <style>
      .cls-1 {
        fill: url(#_名称未設定グラデーション_3);
      }
    </style>
    <linearGradient id="_名称未設定グラデーション_3" data-name="名称未設定グラデーション 3" x1="0" y1="72.36" x2="1161.21" y2="72.36" gradientUnits="userSpaceOnUse">
      <stop offset="0" stop-color="#d7e5fd"/>
      <stop offset="1" stop-color="#d5edfb"/>
    </linearGradient>
  </defs>
  <g id="_デザイン" data-name="デザイン">
    <g>
      <path class="cls-1" d="M57.43,91.75h-29.04v49.17H0V4.17h59.56c13.73,0,24.68,3.53,32.84,10.58s12.25,17.97,12.25,32.75c0,16.14-4.08,27.55-12.25,34.23s-19.82,10.02-34.98,10.02ZM70.79,63.27c3.71-3.28,5.57-8.47,5.57-15.59s-1.87-12.18-5.61-15.21c-3.74-3.03-8.98-4.55-15.72-4.55h-26.63v40.26h26.63c6.74,0,12-1.64,15.77-4.92Z"/>
      <path class="cls-1" d="M145.08,4.17h28.57v112.16h67.72v24.58h-96.3V4.17Z"/>
      <path class="cls-1" d="M360.2,112.81h-50.38l-9.46,28.11h-29.87L319.29,4.17h32.29l48.43,136.75h-30.99l-8.81-28.11ZM352.22,89.25l-17.07-53.81-17.63,53.81h34.7Z"/>
      <path class="cls-1" d="M535.71,4.17v24.21h-40.91v112.53h-28.76V28.39h-41.1V4.17h110.77Z"/>
      <path class="cls-1" d="M668.36,28.39h-68.56v31.45h60.02v23.75h-60.02v57.33h-28.39V4.36h96.95v24.03Z"/>
      <path class="cls-1" d="M766.96,144.73c-19.54,0-34.48-5.32-44.81-15.96-13.86-13.05-20.78-31.85-20.78-56.41s6.93-43.85,20.78-56.41c10.33-10.64,25.26-15.96,44.81-15.96s34.48,5.32,44.81,15.96c13.79,12.56,20.69,31.36,20.69,56.41s-6.9,43.36-20.69,56.41c-10.33,10.64-25.27,15.96-44.81,15.96ZM793.96,107.99c6.62-8.35,9.93-20.22,9.93-35.62s-3.33-27.2-9.97-35.58c-6.65-8.38-15.63-12.57-26.95-12.57s-20.35,4.17-27.09,12.52c-6.74,8.35-10.11,20.22-10.11,35.62s3.37,27.28,10.11,35.62c6.74,8.35,15.77,12.52,27.09,12.52s20.32-4.17,27-12.52Z"/>
      <path class="cls-1" d="M931.33,87.3h-29.5v53.62h-27.92V4.17h67.08c9.59.19,16.96,1.36,22.13,3.53,5.16,2.17,9.54,5.35,13.13,9.56,2.97,3.46,5.32,7.3,7.05,11.5,1.73,4.21,2.6,9,2.6,14.38,0,6.49-1.64,12.88-4.92,19.16-3.28,6.28-8.69,10.71-16.24,13.31,6.31,2.54,10.78,6.14,13.41,10.81,2.63,4.67,3.94,11.8,3.94,21.38v9.18c0,6.25.25,10.48.74,12.71.74,3.53,2.47,6.12,5.2,7.79v3.43h-31.45c-.87-3.03-1.48-5.47-1.86-7.33-.74-3.83-1.15-7.76-1.21-11.78l-.19-12.71c-.12-8.72-1.72-14.53-4.78-17.44-3.06-2.91-8.8-4.36-17.21-4.36ZM948.68,62.44c5.69-2.6,8.54-7.73,8.54-15.4,0-8.29-2.75-13.85-8.26-16.7-3.09-1.61-7.73-2.41-13.92-2.41h-33.21v36.74h32.38c6.43,0,11.26-.74,14.47-2.23Z"/>
      <path class="cls-1" d="M1055.63,140.92h-26.63V4.17h41.56l24.86,107.52,24.68-107.52h41.1v136.75h-26.63V48.43c0-2.66.03-6.39.09-11.18.06-4.79.09-8.49.09-11.09l-25.88,114.76h-27.74l-25.7-114.76c0,2.6.03,6.29.09,11.09.06,4.79.09,8.52.09,11.18v92.5Z"/>
    </g>
  </g>
</svg>