<?xml version="1.0" encoding="UTF-8"?>
<svg id="_レイヤー_2" data-name="レイヤー 2" xmlns="http://www.w3.org/2000/svg" xmlns:xlink="http://www.w3.org/1999/xlink" viewBox="0 0 1017.98 144.54">
  <defs>
    <style>
      .cls-1 {
        fill: url(#_名称未設定グラデーション_3);
      }
    </style>
    <linearGradient id="_名称未設定グラデーション_3" data-name="名称未設定グラデーション 3" x1="0" y1="72.27" x2="1017.98" y2="72.27" gradientUnits="userSpaceOnUse">
      <stop offset="0" stop-color="#d7e5fd"/>
      <stop offset="1" stop-color="#d5edfb"/>
    </linearGradient>
  </defs>
  <g id="_デザイン" data-name="デザイン">
    <g>
      <path class="cls-1" d="M56.22,120.98c6.74,0,12.21-.74,16.42-2.23,7.98-2.84,11.97-8.13,11.97-15.86,0-4.51-1.98-8.01-5.94-10.48-3.96-2.41-10.17-4.55-18.65-6.4l-14.47-3.25c-14.23-3.22-24.06-6.71-29.5-10.48-9.22-6.31-13.82-16.17-13.82-29.59,0-12.25,4.45-22.42,13.36-30.52C24.49,4.05,37.57,0,54.83,0c14.41,0,26.7,3.82,36.88,11.46,10.17,7.64,15.51,18.73,16,33.26h-27.46c-.5-8.23-4.08-14.07-10.76-17.53-4.45-2.29-9.99-3.43-16.61-3.43-7.36,0-13.24,1.48-17.63,4.45-4.39,2.97-6.59,7.11-6.59,12.43,0,4.89,2.16,8.54,6.49,10.95,2.78,1.61,8.72,3.5,17.81,5.66l23.56,5.66c10.33,2.47,18.12,5.78,23.38,9.93,8.16,6.43,12.25,15.74,12.25,27.92s-4.78,22.87-14.33,31.13c-9.55,8.26-23.05,12.39-40.5,12.39s-31.82-4.07-42.03-12.2C5.1,123.93,0,112.75,0,98.53h27.28c.87,6.25,2.57,10.92,5.1,14.01,4.64,5.63,12.58,8.44,23.84,8.44Z"/>
      <path class="cls-1" d="M233.21,88.04V3.99h29.04v84.05c0,14.54-2.26,25.85-6.77,33.96-8.41,14.84-24.46,22.27-48.15,22.27s-39.77-7.42-48.24-22.27c-4.52-8.1-6.77-19.42-6.77-33.96V3.99h29.04v84.05c0,9.4,1.11,16.27,3.34,20.6,3.46,7.67,11.01,11.5,22.64,11.5s19.08-3.83,22.54-11.5c2.23-4.33,3.34-11.19,3.34-20.6Z"/>
      <path class="cls-1" d="M405.01,130.53c-10.21,9.34-23.26,14.01-39.15,14.01-19.67,0-35.13-6.31-46.39-18.93-11.26-12.68-16.88-30.06-16.88-52.14,0-23.87,6.4-42.27,19.2-55.2,11.13-11.26,25.29-16.88,42.49-16.88,23.01,0,39.83,7.55,50.47,22.64,5.88,8.47,9.03,16.98,9.46,25.51h-28.57c-1.86-6.56-4.24-11.5-7.14-14.84-5.2-5.94-12.9-8.91-23.1-8.91s-18.59,4.19-24.58,12.57c-6,8.38-9,20.24-9,35.58s3.17,26.83,9.51,34.47c6.34,7.64,14.39,11.46,24.17,11.46s17.66-3.28,22.92-9.83c2.91-3.53,5.32-8.81,7.24-15.86h28.3c-2.47,14.91-8.78,27.03-18.93,36.37Z"/>
      <path class="cls-1" d="M561.22,130.53c-10.21,9.34-23.26,14.01-39.15,14.01-19.67,0-35.13-6.31-46.39-18.93-11.26-12.68-16.88-30.06-16.88-52.14,0-23.87,6.4-42.27,19.2-55.2,11.13-11.26,25.29-16.88,42.49-16.88,23.01,0,39.83,7.55,50.47,22.64,5.88,8.47,9.03,16.98,9.46,25.51h-28.57c-1.86-6.56-4.24-11.5-7.14-14.84-5.2-5.94-12.9-8.91-23.1-8.91s-18.59,4.19-24.58,12.57c-6,8.38-9,20.24-9,35.58s3.17,26.83,9.51,34.47c6.34,7.64,14.39,11.46,24.17,11.46s17.66-3.28,22.92-9.83c2.91-3.53,5.32-8.81,7.24-15.86h28.3c-2.47,14.91-8.78,27.03-18.93,36.37Z"/>
      <path class="cls-1" d="M716.14,80.99h-66.43v35.16h75.7v24.58h-103.63V3.99h100.29v24.21h-72.36v29.04h66.43v23.75Z"/>
      <path class="cls-1" d="M816.31,120.98c6.74,0,12.21-.74,16.42-2.23,7.98-2.84,11.97-8.13,11.97-15.86,0-4.51-1.98-8.01-5.94-10.48-3.96-2.41-10.17-4.55-18.65-6.4l-14.47-3.25c-14.23-3.22-24.06-6.71-29.5-10.48-9.22-6.31-13.82-16.17-13.82-29.59,0-12.25,4.45-22.42,13.36-30.52,8.91-8.1,21.99-12.15,39.24-12.15,14.41,0,26.7,3.82,36.88,11.46,10.17,7.64,15.51,18.73,16,33.26h-27.46c-.5-8.23-4.08-14.07-10.76-17.53-4.45-2.29-9.99-3.43-16.61-3.43-7.36,0-13.24,1.48-17.63,4.45-4.39,2.97-6.59,7.11-6.59,12.43,0,4.89,2.16,8.54,6.49,10.95,2.78,1.61,8.72,3.5,17.81,5.66l23.56,5.66c10.33,2.47,18.12,5.78,23.38,9.93,8.16,6.43,12.25,15.74,12.25,27.92s-4.78,22.87-14.33,31.13c-9.55,8.26-23.05,12.39-40.5,12.39s-31.82-4.07-42.03-12.2c-10.21-8.13-15.31-19.31-15.31-33.54h27.28c.87,6.25,2.57,10.92,5.1,14.01,4.64,5.63,12.58,8.44,23.84,8.44Z"/>
      <path class="cls-1" d="M962.04,120.98c6.74,0,12.21-.74,16.42-2.23,7.98-2.84,11.97-8.13,11.97-15.86,0-4.51-1.98-8.01-5.94-10.48-3.96-2.41-10.17-4.55-18.65-6.4l-14.47-3.25c-14.23-3.22-24.06-6.71-29.5-10.48-9.22-6.31-13.82-16.17-13.82-29.59,0-12.25,4.45-22.42,13.36-30.52,8.91-8.1,21.99-12.15,39.24-12.15,14.41,0,26.7,3.82,36.88,11.46,10.17,7.64,15.51,18.73,16,33.26h-27.46c-.5-8.23-4.08-14.07-10.76-17.53-4.45-2.29-9.99-3.43-16.61-3.43-7.36,0-13.24,1.48-17.63,4.45-4.39,2.97-6.59,7.11-6.59,12.43,0,4.89,2.16,8.54,6.49,10.95,2.78,1.61,8.72,3.5,17.81,5.66l23.56,5.66c10.33,2.47,18.12,5.78,23.38,9.93,8.16,6.43,12.25,15.74,12.25,27.92s-4.78,22.87-14.33,31.13c-9.55,8.26-23.05,12.39-40.5,12.39s-31.82-4.07-42.03-12.2c-10.21-8.13-15.31-19.31-15.31-33.54h27.28c.87,6.25,2.57,10.92,5.1,14.01,4.64,5.63,12.58,8.44,23.84,8.44Z"/>
    </g>
  </g>
</svg>